<?xml version="1.0" encoding="utf-8"?>
<!-- Generator: Adobe Illustrator 28.0.0, SVG Export Plug-In . SVG Version: 6.00 Build 0)  -->
<svg version="1.1" id="Layer_1" xmlns="http://www.w3.org/2000/svg" xmlns:xlink="http://www.w3.org/1999/xlink" x="0px" y="0px"
	 viewBox="0 0 426.7 426.7" style="enable-background:new 0 0 426.7 426.7;" xml:space="preserve">
<style type="text/css">
	.st0{fill:#FFFFFF;}
</style>
<g>
	<path class="st0" d="M213.3,135.1c-43.2,0-78.3,35.1-78.3,78.3s35.1,78.3,78.3,78.3s78.3-35.2,78.3-78.3S256.5,135.1,213.3,135.1z"
		/>
	<path class="st0" d="M331.4,0H95.2C42.8,0,0,42.8,0,95.2v236.2c0,52.6,42.8,95.2,95.2,95.2h236.2c52.6,0,95.2-42.7,95.2-95.2V95.2
		C426.7,42.8,384,0,331.4,0z M213.3,351.6c-76.2,0-138.2-62-138.2-138.2s62-138.2,138.2-138.2s138.2,62,138.2,138.2
		S289.5,351.6,213.3,351.6z M354.5,100.3c-16.1,0-29.3-13.1-29.3-29.2s13.1-29.3,29.3-29.3s29.3,13.1,29.3,29.3
		S370.6,100.3,354.5,100.3z"/>
</g>
</svg>
