<svg xmlns="http://www.w3.org/2000/svg" width="138.768" height="147.378" viewBox="0 0 138.768 147.378">
  <g id="Group_89" data-name="Group 89" transform="translate(0 -106.233)">
    <path id="Path_142" data-name="Path 142" d="M.532,76.515v2.054h2.62V84.83H5.723V78.569h2.62V76.515Z" transform="translate(0.909 130.804)" fill="#fff"/>
    <g id="Group_88" data-name="Group 88" transform="translate(0 0)">
      <g id="Group_90" data-name="Group 90">
        <path id="Path_143" data-name="Path 143" d="M3.392,80.476A3.009,3.009,0,0,1,4.324,78.2a3.479,3.479,0,0,1,2.512-.891A3.451,3.451,0,0,1,9.57,78.36a3.283,3.283,0,0,1-.179,4.36,3.531,3.531,0,0,1-2.55.889,3.566,3.566,0,0,1-2.349-.74,2.962,2.962,0,0,1-1.1-2.393m2.314-.005a1.8,1.8,0,0,0,.328,1.189,1.065,1.065,0,0,0,1.639.005,1.888,1.888,0,0,0,.32-1.219,1.769,1.769,0,0,0-.325-1.165,1,1,0,0,0-.8-.382,1.048,1.048,0,0,0-.835.387,1.8,1.8,0,0,0-.331,1.184" transform="translate(5.799 132.165)" fill="#fff"/>
        <path id="Path_144" data-name="Path 144" d="M12.877,76.515V84.83H10.721v-.889a2.944,2.944,0,0,1-.829.764,2.375,2.375,0,0,1-1.111.263,2.147,2.147,0,0,1-1.88-.937,3.892,3.892,0,0,1-.65-2.276,3.3,3.3,0,0,1,.718-2.29,2.345,2.345,0,0,1,1.824-.8,2.517,2.517,0,0,1,.978.184,2.19,2.19,0,0,1,.78.545V76.515ZM10.566,81.8a1.582,1.582,0,0,0-.3-1.057.957.957,0,0,0-.759-.35.83.83,0,0,0-.675.336,1.773,1.773,0,0,0-.274,1.122,1.671,1.671,0,0,0,.282,1.081.866.866,0,0,0,.694.344.932.932,0,0,0,.737-.347,1.727,1.727,0,0,0,.3-1.13" transform="translate(10.684 130.804)" fill="#fff"/>
        <path id="Path_145" data-name="Path 145" d="M11.5,79.4l-2.206-.233a2.435,2.435,0,0,1,.36-.91,1.944,1.944,0,0,1,.677-.574,2.784,2.784,0,0,1,.872-.274,6.978,6.978,0,0,1,1.2-.1,9.726,9.726,0,0,1,1.669.117,2.164,2.164,0,0,1,1.049.485,1.7,1.7,0,0,1,.466.723,2.67,2.67,0,0,1,.171.894V82.19a3.315,3.315,0,0,0,.051.667,3.072,3.072,0,0,0,.236.615H13.883a2.053,2.053,0,0,1-.171-.355,2.578,2.578,0,0,1-.081-.382,2.945,2.945,0,0,1-.9.623,3.7,3.7,0,0,1-1.422.252,2.38,2.38,0,0,1-1.637-.5,1.589,1.589,0,0,1-.558-1.23,1.615,1.615,0,0,1,.4-1.13A2.732,2.732,0,0,1,11,80.09q1.3-.26,1.685-.363a8.537,8.537,0,0,0,.816-.276.8.8,0,0,0-.176-.6.877.877,0,0,0-.618-.171,1.6,1.6,0,0,0-.851.182,1.015,1.015,0,0,0-.358.534m2,1.214q-.476.171-.992.3a2.328,2.328,0,0,0-.891.368.593.593,0,0,0,0,.872.809.809,0,0,0,.558.171,1.434,1.434,0,0,0,.718-.187,1.127,1.127,0,0,0,.471-.455,1.54,1.54,0,0,0,.138-.7Z" transform="translate(15.577 132.163)" fill="#fff"/>
        <path id="Path_146" data-name="Path 146" d="M11.831,77.361h2.436l1.244,4.01,1.154-4.01h2.273L16.548,83.8a3.915,3.915,0,0,1-.832,1.488,2.657,2.657,0,0,1-1.832.547,13.07,13.07,0,0,1-1.544-.138l-.179-1.609a3.645,3.645,0,0,0,1.111.157,1.06,1.06,0,0,0,.658-.187,1.408,1.408,0,0,0,.428-.669Z" transform="translate(20.225 132.251)" fill="#fff"/>
        <path id="Path_147" data-name="Path 147" d="M14.585,76.463h2.468v1.9a2.771,2.771,0,0,1-.442,1.661,3.475,3.475,0,0,1-1.488,1.068l-.539-1.011a2.557,2.557,0,0,0,.9-.607,1.245,1.245,0,0,0,.279-.718H14.585Z" transform="translate(24.933 130.716)" fill="#fff"/>
        <path id="Path_148" data-name="Path 148" d="M15.625,81.8l2.292-.217a1.106,1.106,0,0,0,.4.585,1.191,1.191,0,0,0,.683.176,1.155,1.155,0,0,0,.718-.2.446.446,0,0,0,.2-.368.417.417,0,0,0-.26-.385,4.7,4.7,0,0,0-.992-.238,10.881,10.881,0,0,1-1.672-.387,1.781,1.781,0,0,1-.788-.6,1.659,1.659,0,0,1,.027-1.994,2.073,2.073,0,0,1,.951-.645,5.1,5.1,0,0,1,1.628-.211,5.59,5.59,0,0,1,1.593.165,2.076,2.076,0,0,1,.856.509,2.689,2.689,0,0,1,.569.935l-2.189.217a.746.746,0,0,0-.282-.425,1.168,1.168,0,0,0-.661-.182.935.935,0,0,0-.569.138.415.415,0,0,0-.179.336.36.36,0,0,0,.228.336,3.6,3.6,0,0,0,.986.2,6.823,6.823,0,0,1,1.715.363,1.912,1.912,0,0,1,.859.664,1.622,1.622,0,0,1,.3.946,1.846,1.846,0,0,1-.314,1.013,2.112,2.112,0,0,1-.992.786,4.758,4.758,0,0,1-1.845.293,4.375,4.375,0,0,1-2.352-.471,2.117,2.117,0,0,1-.9-1.338" transform="translate(26.711 132.165)" fill="#fff"/>
        <path id="Path_149" data-name="Path 149" d="M24.2,77.446h2.159v5.69l.005.266a2.481,2.481,0,0,1-.241,1.081,2.28,2.28,0,0,1-.639.832,2.546,2.546,0,0,1-1.016.458,6.3,6.3,0,0,1-1.409.144,4.139,4.139,0,0,1-2.493-.545,1.777,1.777,0,0,1-.68-1.458c0-.076.005-.179.014-.306l2.241.255a.709.709,0,0,0,.26.431,1.114,1.114,0,0,0,.642.176.967.967,0,0,0,.745-.268,1.365,1.365,0,0,0,.247-.929v-.913a2.255,2.255,0,0,1-1.832.867,2.287,2.287,0,0,1-1.951-1.054,3.367,3.367,0,0,1-.528-1.981,3.055,3.055,0,0,1,.68-2.143,2.306,2.306,0,0,1,1.783-.737A2.187,2.187,0,0,1,24.2,78.338Zm-2.173,2.921a1.417,1.417,0,0,0,.279.967.984.984,0,0,0,1.452-.011,1.432,1.432,0,0,0,.293-.984,1.475,1.475,0,0,0-.306-1.008.959.959,0,0,0-.748-.35.876.876,0,0,0-.707.32,1.691,1.691,0,0,0-.263,1.065" transform="translate(33.713 132.165)" fill="#fff"/>
        <path id="Path_150" data-name="Path 150" d="M22.58,80.476a3.009,3.009,0,0,1,.932-2.273,3.479,3.479,0,0,1,2.512-.891,3.451,3.451,0,0,1,2.734,1.049,3.283,3.283,0,0,1-.179,4.36,3.531,3.531,0,0,1-2.55.889,3.566,3.566,0,0,1-2.349-.74,2.962,2.962,0,0,1-1.1-2.393m2.314-.005a1.8,1.8,0,0,0,.328,1.189,1.065,1.065,0,0,0,1.639.005,1.888,1.888,0,0,0,.32-1.219,1.769,1.769,0,0,0-.325-1.165,1,1,0,0,0-.8-.382,1.048,1.048,0,0,0-.835.387,1.8,1.8,0,0,0-.331,1.184" transform="translate(38.601 132.165)" fill="#fff"/>
        <path id="Path_151" data-name="Path 151" d="M25.44,80.476a3.009,3.009,0,0,1,.932-2.273,3.479,3.479,0,0,1,2.512-.891,3.451,3.451,0,0,1,2.734,1.049,3.283,3.283,0,0,1-.179,4.36,3.531,3.531,0,0,1-2.55.889,3.566,3.566,0,0,1-2.349-.74,2.962,2.962,0,0,1-1.1-2.393m2.314-.005a1.8,1.8,0,0,0,.328,1.189,1.065,1.065,0,0,0,1.639.005,1.888,1.888,0,0,0,.32-1.219,1.769,1.769,0,0,0-.325-1.165,1,1,0,0,0-.8-.382,1.048,1.048,0,0,0-.835.387,1.8,1.8,0,0,0-.331,1.184" transform="translate(43.49 132.165)" fill="#fff"/>
        <path id="Path_152" data-name="Path 152" d="M34.928,76.515V84.83H32.769v-.889a2.944,2.944,0,0,1-.829.764,2.367,2.367,0,0,1-1.111.263,2.147,2.147,0,0,1-1.88-.937,3.892,3.892,0,0,1-.65-2.276,3.3,3.3,0,0,1,.718-2.29,2.345,2.345,0,0,1,1.824-.8,2.517,2.517,0,0,1,.978.184,2.19,2.19,0,0,1,.78.545V76.515ZM32.614,81.8a1.582,1.582,0,0,0-.3-1.057.957.957,0,0,0-.759-.35.834.834,0,0,0-.675.336,1.773,1.773,0,0,0-.274,1.122,1.687,1.687,0,0,0,.282,1.081.866.866,0,0,0,.694.344.928.928,0,0,0,.737-.347,1.727,1.727,0,0,0,.3-1.13" transform="translate(48.376 130.804)" fill="#fff"/>
        <path id="Path_153" data-name="Path 153" d="M32.7,77.448h2.157v.878a3.028,3.028,0,0,1,.94-.783,2.575,2.575,0,0,1,1.143-.233,2.175,2.175,0,0,1,1.141.257,1.882,1.882,0,0,1,.688.759,3.475,3.475,0,0,1,.992-.8,2.572,2.572,0,0,1,1.1-.214,1.99,1.99,0,0,1,1.515.577,2.55,2.55,0,0,1,.545,1.8v3.782H40.607v-3.43a.957.957,0,0,0-.157-.607.7.7,0,0,0-.577-.314.824.824,0,0,0-.656.3,1.472,1.472,0,0,0-.249.948v3.108H36.654V80.155a2.015,2.015,0,0,0-.046-.542.743.743,0,0,0-.255-.363.673.673,0,0,0-.428-.141.818.818,0,0,0-.653.3,1.515,1.515,0,0,0-.257.986v3.075H32.7Z" transform="translate(55.903 132.163)" fill="#fff"/>
        <path id="Path_154" data-name="Path 154" d="M36.878,80.476A3.009,3.009,0,0,1,37.81,78.2a3.479,3.479,0,0,1,2.512-.891,3.451,3.451,0,0,1,2.734,1.049,3.283,3.283,0,0,1-.179,4.36,4.1,4.1,0,0,1-4.9.149,2.962,2.962,0,0,1-1.1-2.393m2.314-.005a1.8,1.8,0,0,0,.328,1.189,1.065,1.065,0,0,0,1.639.005,1.888,1.888,0,0,0,.32-1.219,1.769,1.769,0,0,0-.325-1.165,1,1,0,0,0-.8-.382,1.048,1.048,0,0,0-.835.387,1.8,1.8,0,0,0-.331,1.184" transform="translate(63.043 132.165)" fill="#fff"/>
        <path id="Path_155" data-name="Path 155" d="M39.737,80.476a3.009,3.009,0,0,1,.932-2.273,4.038,4.038,0,0,1,5.246.157,3.283,3.283,0,0,1-.179,4.36,4.1,4.1,0,0,1-4.9.149,2.962,2.962,0,0,1-1.1-2.393m2.314-.005a1.8,1.8,0,0,0,.328,1.189,1.065,1.065,0,0,0,1.639.005,1.888,1.888,0,0,0,.32-1.219,1.769,1.769,0,0,0-.325-1.165,1,1,0,0,0-.8-.382,1.048,1.048,0,0,0-.835.387,1.8,1.8,0,0,0-.331,1.184" transform="translate(67.931 132.165)" fill="#fff"/>
        <path id="Path_156" data-name="Path 156" d="M49.223,76.515V84.83H47.064v-.889a2.944,2.944,0,0,1-.829.764,2.359,2.359,0,0,1-1.111.263,2.147,2.147,0,0,1-1.88-.937,3.891,3.891,0,0,1-.648-2.276,3.282,3.282,0,0,1,.718-2.29,2.341,2.341,0,0,1,1.824-.8,2.527,2.527,0,0,1,.978.184,2.2,2.2,0,0,1,.778.545V76.515ZM46.91,81.8a1.567,1.567,0,0,0-.3-1.057.955.955,0,0,0-.756-.35.826.826,0,0,0-.675.336,1.755,1.755,0,0,0-.276,1.122,1.687,1.687,0,0,0,.282,1.081.866.866,0,0,0,.694.344.924.924,0,0,0,.737-.347,1.711,1.711,0,0,0,.3-1.13" transform="translate(72.818 130.804)" fill="#fff"/>
        <path id="Path_157" data-name="Path 157" d="M47.023,76.515h2.309v1.572H47.023Zm0,2.292h2.309V84.83H47.023Z" transform="translate(80.386 130.804)" fill="#fff"/>
        <path id="Path_158" data-name="Path 158" d="M48.269,81.8l2.292-.217a1.106,1.106,0,0,0,.4.585,1.191,1.191,0,0,0,.683.176,1.155,1.155,0,0,0,.718-.2.446.446,0,0,0,.2-.368.417.417,0,0,0-.26-.385,4.7,4.7,0,0,0-.992-.238,10.881,10.881,0,0,1-1.672-.387,1.781,1.781,0,0,1-.788-.6,1.659,1.659,0,0,1,.027-1.994,2.073,2.073,0,0,1,.951-.645,5.1,5.1,0,0,1,1.628-.211,5.59,5.59,0,0,1,1.593.165,2.077,2.077,0,0,1,.856.509,2.689,2.689,0,0,1,.569.935l-2.189.217A.746.746,0,0,0,52,78.712a1.168,1.168,0,0,0-.661-.182.935.935,0,0,0-.569.138.415.415,0,0,0-.179.336.36.36,0,0,0,.228.336,3.6,3.6,0,0,0,.986.2,6.823,6.823,0,0,1,1.715.363,1.912,1.912,0,0,1,.859.664,1.622,1.622,0,0,1,.3.946,1.846,1.846,0,0,1-.314,1.013,2.112,2.112,0,0,1-.992.786,4.758,4.758,0,0,1-1.845.293,4.375,4.375,0,0,1-2.352-.471,2.117,2.117,0,0,1-.9-1.338" transform="translate(82.516 132.165)" fill="#fff"/>
        <path id="Path_159" data-name="Path 159" d="M3.4,86.943,5.7,86.726a1.107,1.107,0,0,0,.4.585,1.192,1.192,0,0,0,.683.176,1.155,1.155,0,0,0,.718-.2.446.446,0,0,0,.2-.368.417.417,0,0,0-.26-.385A4.7,4.7,0,0,0,6.44,86.3a10.885,10.885,0,0,1-1.672-.387,1.781,1.781,0,0,1-.788-.6,1.659,1.659,0,0,1,.027-1.994,2.073,2.073,0,0,1,.951-.645,5.1,5.1,0,0,1,1.628-.211,5.59,5.59,0,0,1,1.593.165,2.077,2.077,0,0,1,.856.509,2.689,2.689,0,0,1,.569.935l-2.189.217a.746.746,0,0,0-.282-.425,1.168,1.168,0,0,0-.661-.182.935.935,0,0,0-.569.138.415.415,0,0,0-.179.336.36.36,0,0,0,.228.336,3.6,3.6,0,0,0,.986.2,6.822,6.822,0,0,1,1.715.363,1.912,1.912,0,0,1,.859.664,1.622,1.622,0,0,1,.3.946,1.846,1.846,0,0,1-.314,1.013,2.112,2.112,0,0,1-.992.786,4.758,4.758,0,0,1-1.845.293A4.375,4.375,0,0,1,4.3,88.281a2.117,2.117,0,0,1-.9-1.339" transform="translate(5.821 140.961)" fill="#fff"/>
        <path id="Path_160" data-name="Path 160" d="M6.179,90.91V82.591H8.341v.891a2.845,2.845,0,0,1,.821-.761,2.373,2.373,0,0,1,1.116-.266,2.162,2.162,0,0,1,1.87.924,3.828,3.828,0,0,1,.661,2.287,3.288,3.288,0,0,1-.721,2.295,2.36,2.36,0,0,1-1.821.791,2.569,2.569,0,0,1-.973-.182,2.329,2.329,0,0,1-.786-.539V90.91Zm2.314-5.289a1.588,1.588,0,0,0,.3,1.062.968.968,0,0,0,.761.347.854.854,0,0,0,.675-.333,1.791,1.791,0,0,0,.271-1.124,1.664,1.664,0,0,0-.285-1.076.86.86,0,0,0-.691-.344.92.92,0,0,0-.737.347,1.711,1.711,0,0,0-.3,1.122" transform="translate(10.563 140.961)" fill="#fff"/>
        <path id="Path_161" data-name="Path 161" d="M8.929,85.621a3.009,3.009,0,0,1,.932-2.273,3.479,3.479,0,0,1,2.512-.891A3.451,3.451,0,0,1,15.107,83.5a3.283,3.283,0,0,1-.179,4.36,3.531,3.531,0,0,1-2.55.889,3.566,3.566,0,0,1-2.349-.74,2.962,2.962,0,0,1-1.1-2.393m2.314-.005a1.8,1.8,0,0,0,.328,1.189,1.065,1.065,0,0,0,1.639.005,1.888,1.888,0,0,0,.32-1.219,1.769,1.769,0,0,0-.325-1.165,1,1,0,0,0-.8-.382,1.048,1.048,0,0,0-.835.387,1.8,1.8,0,0,0-.331,1.184" transform="translate(15.264 140.961)" fill="#fff"/>
        <path id="Path_162" data-name="Path 162" d="M11.894,82.593h2.149v.981a3.239,3.239,0,0,1,.975-.859,2.6,2.6,0,0,1,1.206-.26,1.982,1.982,0,0,1,1.5.572,2.483,2.483,0,0,1,.539,1.761v3.829H15.945V85.3a1.2,1.2,0,0,0-.211-.8.744.744,0,0,0-.588-.236.838.838,0,0,0-.68.32,1.83,1.83,0,0,0-.263,1.141v2.891H11.894Z" transform="translate(20.333 140.959)" fill="#fff"/>
        <path id="Path_163" data-name="Path 163" d="M14.6,86.943l2.292-.217a1.119,1.119,0,0,0,.393.585,1.2,1.2,0,0,0,.683.176,1.158,1.158,0,0,0,.721-.2.446.446,0,0,0,.2-.368.422.422,0,0,0-.26-.385,4.7,4.7,0,0,0-.992-.238,10.885,10.885,0,0,1-1.672-.387,1.781,1.781,0,0,1-.788-.6,1.659,1.659,0,0,1,.027-1.994,2.073,2.073,0,0,1,.951-.645,5.091,5.091,0,0,1,1.628-.211,5.556,5.556,0,0,1,1.59.165,2.042,2.042,0,0,1,.856.509,2.653,2.653,0,0,1,.572.935l-2.192.217a.73.73,0,0,0-.279-.425,1.174,1.174,0,0,0-.661-.182.929.929,0,0,0-.569.138.415.415,0,0,0-.179.336.362.362,0,0,0,.225.336,3.627,3.627,0,0,0,.989.2,6.822,6.822,0,0,1,1.715.363,1.927,1.927,0,0,1,.859.664,1.62,1.62,0,0,1,.293.946,1.842,1.842,0,0,1-.312,1.013,2.112,2.112,0,0,1-.992.786,4.767,4.767,0,0,1-1.845.293,4.375,4.375,0,0,1-2.352-.471,2.117,2.117,0,0,1-.9-1.339" transform="translate(24.966 140.961)" fill="#fff"/>
        <path id="Path_164" data-name="Path 164" d="M17.268,85.621a3.009,3.009,0,0,1,.932-2.273,3.479,3.479,0,0,1,2.512-.891A3.461,3.461,0,0,1,23.448,83.5a3.283,3.283,0,0,1-.179,4.36,3.54,3.54,0,0,1-2.55.889,3.574,3.574,0,0,1-2.352-.74,2.962,2.962,0,0,1-1.1-2.393m2.314-.005A1.817,1.817,0,0,0,19.91,86.8a1.065,1.065,0,0,0,1.639.005,1.872,1.872,0,0,0,.32-1.219,1.769,1.769,0,0,0-.322-1.165,1,1,0,0,0-.8-.382,1.048,1.048,0,0,0-.835.387,1.8,1.8,0,0,0-.331,1.184" transform="translate(29.52 140.961)" fill="#fff"/>
        <path id="Path_165" data-name="Path 165" d="M20.242,82.593H22.4v.986a2.358,2.358,0,0,1,.645-.881,1.353,1.353,0,0,1,.821-.244,2.447,2.447,0,0,1,1.116.32l-.715,1.645a1.8,1.8,0,0,0-.648-.171.8.8,0,0,0-.7.374,3.807,3.807,0,0,0-.358,1.975v2.019H20.242Z" transform="translate(34.604 140.959)" fill="#fff"/>
        <path id="Path_166" data-name="Path 166" d="M29.076,86.176H24.445a1.481,1.481,0,0,0,.3.829,1.1,1.1,0,0,0,.875.393,1.305,1.305,0,0,0,.645-.171,1.47,1.47,0,0,0,.4-.382l2.273.211a3.264,3.264,0,0,1-1.257,1.3,4.619,4.619,0,0,1-2.116.393,4.318,4.318,0,0,1-1.883-.339,2.763,2.763,0,0,1-1.138-1.073,3.226,3.226,0,0,1-.45-1.726,3.028,3.028,0,0,1,.9-2.284,3.444,3.444,0,0,1,2.5-.875,4.451,4.451,0,0,1,2.04.39,2.667,2.667,0,0,1,1.141,1.135,4.159,4.159,0,0,1,.393,1.935Zm-2.349-1.105a1.551,1.551,0,0,0-.36-.959,1.127,1.127,0,0,0-1.647.149,1.584,1.584,0,0,0-.268.81Z" transform="translate(37.779 140.961)" fill="#fff"/>
        <path id="Path_167" data-name="Path 167" d="M31.588,81.66v8.315H29.429v-.889a2.944,2.944,0,0,1-.829.764,2.366,2.366,0,0,1-1.111.263,2.147,2.147,0,0,1-1.88-.937,3.892,3.892,0,0,1-.65-2.276,3.3,3.3,0,0,1,.718-2.29,2.345,2.345,0,0,1,1.824-.8,2.517,2.517,0,0,1,.978.184,2.191,2.191,0,0,1,.78.545V81.66Zm-2.314,5.286a1.582,1.582,0,0,0-.3-1.057.957.957,0,0,0-.759-.35.834.834,0,0,0-.675.336A1.773,1.773,0,0,0,27.267,87a1.687,1.687,0,0,0,.282,1.081.866.866,0,0,0,.694.344.928.928,0,0,0,.737-.347,1.727,1.727,0,0,0,.3-1.13" transform="translate(42.666 139.6)" fill="#fff"/>
        <path id="Path_168" data-name="Path 168" d="M29.36,81.66h2.33v2.883A2.234,2.234,0,0,1,32.476,84a2.518,2.518,0,0,1,.973-.184,2.354,2.354,0,0,1,1.821.794,3.245,3.245,0,0,1,.721,2.271,4.3,4.3,0,0,1-.328,1.74,2.44,2.44,0,0,1-.91,1.122,2.361,2.361,0,0,1-1.292.374,2.39,2.39,0,0,1-1.111-.263,2.879,2.879,0,0,1-.826-.764v.889H29.36Zm2.314,5.286a1.75,1.75,0,0,0,.293,1.127.92.92,0,0,0,.74.35.871.871,0,0,0,.7-.344,1.85,1.85,0,0,0,.279-1.154,1.647,1.647,0,0,0-.274-1.049.834.834,0,0,0-.667-.336.963.963,0,0,0-.77.35,1.582,1.582,0,0,0-.3,1.057" transform="translate(50.191 139.6)" fill="#fff"/>
        <path id="Path_169" data-name="Path 169" d="M31.97,82.506h2.436l1.244,4.01,1.154-4.01h2.273l-2.39,6.435a3.915,3.915,0,0,1-.832,1.488,2.657,2.657,0,0,1-1.832.547,13.074,13.074,0,0,1-1.544-.138L32.3,89.228a3.644,3.644,0,0,0,1.111.157,1.06,1.06,0,0,0,.658-.187,1.408,1.408,0,0,0,.428-.669Z" transform="translate(54.653 141.046)" fill="#fff"/>
        <path id="Path_170" data-name="Path 170" d="M41.96,88.6H39.042l-.406,1.371H36.013L39.14,81.66h2.8l3.127,8.315H42.375Zm-.534-1.8-.919-2.989L39.6,86.805Z" transform="translate(61.565 139.6)" fill="#fff"/>
        <path id="Path_171" data-name="Path 171" d="M39.6,81.66h2.36v4.292l1.726-2h2.842l-2.162,2.111,2.284,3.913h-2.6l-1.219-2.414-.87.851v1.563H39.6Z" transform="translate(67.695 139.6)" fill="#fff"/>
        <path id="Path_172" data-name="Path 172" d="M42.49,81.661H44.8v1.572H42.49Zm0,2.292H44.8v6.023H42.49Z" transform="translate(72.637 139.602)" fill="#fff"/>
        <path id="Path_173" data-name="Path 173" d="M44.777,83.953h2.314v5.842a5.358,5.358,0,0,1-.163,1.582,1.451,1.451,0,0,1-.6.753,2.226,2.226,0,0,1-1.246.29,8.707,8.707,0,0,1-1.664-.2l.347-1.677a2.521,2.521,0,0,0,.409.054.533.533,0,0,0,.447-.2,1.429,1.429,0,0,0,.154-.8Zm0-2.292h2.314v1.59H44.777Z" transform="translate(74.227 139.602)" fill="#fff"/>
        <path id="Path_174" data-name="Path 174" d="M45.21,86.91a3.009,3.009,0,0,1,.932-2.273,4.038,4.038,0,0,1,5.246.157,3.283,3.283,0,0,1-.179,4.36,4.1,4.1,0,0,1-4.9.149,2.962,2.962,0,0,1-1.1-2.393M46.833,81.7H50.5v1.233H46.833Zm.691,5.2a1.8,1.8,0,0,0,.328,1.189,1.065,1.065,0,0,0,1.639.005,1.888,1.888,0,0,0,.32-1.219,1.769,1.769,0,0,0-.325-1.165,1,1,0,0,0-.8-.382,1.048,1.048,0,0,0-.835.387,1.8,1.8,0,0,0-.331,1.184" transform="translate(77.287 139.672)" fill="#fff"/>
        <path id="Path_175" data-name="Path 175" d="M18.5,39.5H9.733a.891.891,0,0,0-.786.474L1.506,54.211A13.245,13.245,0,0,0,0,60.343v2.474a.883.883,0,0,0,.883.883H7.917a.883.883,0,0,0,.883-.883V60.039a.884.884,0,0,1,.886-.883h8.855a.884.884,0,0,1,.886.883v2.777a.883.883,0,0,0,.883.883h7.2a.883.883,0,0,0,.883-.883V60.394a13.255,13.255,0,0,0-1.55-6.216L19.281,39.973a.886.886,0,0,0-.78-.469m-7.3,12.41,2.921-6.267,2.9,6.267Z" transform="translate(0 67.534)" fill="#fff"/>
        <path id="Path_176" data-name="Path 176" d="M28.821,39.493a.879.879,0,0,0-.6.236l-7.53,7.012h-.144V40.376a.886.886,0,0,0-.886-.883h-6.5a.884.884,0,0,0-.886.883V62.806a.884.884,0,0,0,.886.883h6.5a.886.886,0,0,0,.886-.883v-9.34h.144l7.519,9.873a.879.879,0,0,0,.7.35h8.57a.884.884,0,0,0,.688-1.441L28.842,50.732a.882.882,0,0,1,.073-1.192l8.841-8.527a.883.883,0,0,0-.612-1.52Z" transform="translate(20.977 67.515)" fill="#fff"/>
        <path id="Path_177" data-name="Path 177" d="M24.516,63.689h6.506a.883.883,0,0,0,.883-.883V40.376a.883.883,0,0,0-.883-.883H24.516a.883.883,0,0,0-.883.883V62.806a.883.883,0,0,0,.883.883" transform="translate(40.401 67.515)" fill="#fff"/>
        <path id="Path_178" data-name="Path 178" d="M55.113,39.207c-8.194.016-14.9,2.639-14.864,11.778v1.761c-.033,9.123,6.671,11.762,14.864,11.778,8.177-.016,14.881-2.655,14.848-11.778V50.985c0-9.12-6.655-11.778-14.848-11.778m6.6,12.957c.051,4.1-3,4.839-6.6,4.9-3.609-.057-6.665-.8-6.614-4.9v-.615c-.051-4.075,3-4.82,6.614-4.877,3.593.057,6.649.8,6.6,4.877Z" transform="translate(68.806 67.026)" fill="#fff"/>
        <path id="Path_179" data-name="Path 179" d="M41.315,47.8h6.619a.884.884,0,0,1,.886.883v4.5c.046,3.49-2.826,4.089-6.221,4.135-3.379-.046-6.251-.645-6.2-4.135V51.992a.883.883,0,0,0-.883-.883H29.005a.883.883,0,0,0-.883.883v1.7c-.033,8.02,6.5,10.326,14.477,10.342,8.02,0,14.493-2.338,14.493-10.342V40.376a.883.883,0,0,0-.883-.883H41.315a.883.883,0,0,0-.883.883v6.538a.883.883,0,0,0,.883.883" transform="translate(48.075 67.515)" fill="#fff"/>
        <path id="Path_180" data-name="Path 180" d="M22.922,66.275H24a.808.808,0,0,0,.807-.807v-1.4a.805.805,0,0,1,.8-.807H39.738a.806.806,0,0,1,.807.807v1.252a.808.808,0,0,0,.807.807H52.2A.808.808,0,0,0,53,65.322V64.07a.806.806,0,0,1,.807-.807H64.765a.808.808,0,0,0,.807-.807v-7.28a.807.807,0,0,0-.807-.8H53.811A.808.808,0,0,1,53,53.562V51.788a.805.805,0,0,0-.807-.8H41.353a.805.805,0,0,0-.807.8v1.775a.808.808,0,0,1-.807.807H25.613a.807.807,0,0,1-.8-.807V51.788a.807.807,0,0,0-.807-.8H13.155a.8.8,0,0,0-.8.8v1.775a.809.809,0,0,1-.807.807H.807a.805.805,0,0,0-.807.8v7.28a.806.806,0,0,0,.807.807H11.543a.808.808,0,0,1,.807.807v1.4a.805.805,0,0,0,.8.807Z" transform="translate(0 87.157)" fill="#fff"/>
        <path id="Path_181" data-name="Path 181" d="M0,58.261v6.216a.808.808,0,0,0,.807.807H4.246a.805.805,0,0,1,.807.8V70.21a.805.805,0,0,1-.807.8H.807A.808.808,0,0,0,0,71.823v7.354a.808.808,0,0,0,.807.807H2.886a.805.805,0,0,1,.686,1.233A44.849,44.849,0,0,1,.184,85.885.8.8,0,0,0,0,86.394V98.872a.808.808,0,0,0,1.422.526c.764-.9,1.479-1.845,2.168-2.823a.806.806,0,0,1,1.463.469v4.725a.808.808,0,0,0,.807.807h10.6a.808.808,0,0,0,.807-.807v-5.7a.807.807,0,0,1,1.528-.36c.249.5.469.954.669,1.371a.8.8,0,0,0,1.222.29l5.438-4.23a.806.806,0,0,0,.2-1.057c-1.6-2.609-3.975-6.191-7.129-10.838a.807.807,0,0,1,.664-1.263h2.71a.806.806,0,0,1,.737,1.133c-.16.36-.325.745-.469,1.087a.806.806,0,0,0,.48,1.073L32,86.289a.809.809,0,0,0,.994-.409,76.623,76.623,0,0,0,6.273-19.891.811.811,0,0,0-.642-.932l-9.18-1.824a.8.8,0,0,0-.943.629c-.691,3.287-1.482,6.516-2.441,9.665a.806.806,0,0,1-1.577-.238V71.823a.809.809,0,0,0-.807-.807h-5.6a.8.8,0,0,1-.8-.8V66.089a.8.8,0,0,1,.8-.8h6.411a.809.809,0,0,0,.742-1.127l-2.672-6.216a.809.809,0,0,0-.742-.488h-21A.808.808,0,0,0,0,58.261" transform="translate(0 98.219)" fill="#fff"/>
        <path id="Path_182" data-name="Path 182" d="M21.259,102.426A43.968,43.968,0,0,0,32.582,90.369a.8.8,0,0,1,1.363.041,39.973,39.973,0,0,0,10.331,12,.82.82,0,0,0,.5.165H50.8a.808.808,0,0,0,.807-.807V94.7a.808.808,0,0,0-.352-.664,24.943,24.943,0,0,1-8.47-9.375.808.808,0,0,1,.984-1.127l4.452,1.52a.812.812,0,0,0,.978-.382q1.248-2.369,2.341-4.931a.839.839,0,0,0,.068-.322V64.071a.809.809,0,0,0-.656-.791l-5.164-1.005a.8.8,0,0,0-.935.615A87.622,87.622,0,0,1,41.494,74.2a.8.8,0,0,1-1.558-.192c-.157-1.666-.249-3.536-.249-5.641V58.261a.808.808,0,0,0-.807-.807H27.708a.808.808,0,0,0-.807.807V68.371c0,7.424-1.558,13.45-4.59,18.007-2.891,4.343-7.421,7.887-13.664,10.757a.806.806,0,0,0-.309,1.222l2.956,3.9a.807.807,0,0,0,.642.32h8.852a.818.818,0,0,0,.471-.149" transform="translate(13.97 98.219)" fill="#fff"/>
        <path id="Path_183" data-name="Path 183" d="M91.839,53.988h-31.4a.808.808,0,0,1-.561-1.387.805.805,0,0,0-.564-1.382H43.19a.782.782,0,0,0-.461.146,88.069,88.069,0,0,1-15.268,8.481.811.811,0,0,0-.482.737v9.586a.805.805,0,0,0,1.076.759c2.384-.851,4.62-1.723,6.671-2.661a.787.787,0,0,1,.713.024c2.078,1.127,4.417,2.257,6.942,3.384a.8.8,0,0,1-.187,1.528q-6.426,1.138-14.5,2.162a.811.811,0,0,0-.71.8v7.771a.81.81,0,0,0,.919.8A225.839,225.839,0,0,0,60.073,78.3a.861.861,0,0,1,.439,0,230.739,230.739,0,0,0,31.211,6.454.81.81,0,0,0,.924-.8V75.827a.807.807,0,0,0-.688-.8q-7.312-1.1-13.084-2.141a.806.806,0,0,1-.206-1.52A98.78,98.78,0,0,0,92.3,63.36a.811.811,0,0,0,.344-.664V54.8a.806.806,0,0,0-.807-.807m-31.2,14.694A92.387,92.387,0,0,1,48.866,64.2a.807.807,0,0,1,.339-1.539H71.244a.809.809,0,0,1,.385,1.52,70.033,70.033,0,0,1-10.483,4.5.838.838,0,0,1-.509.005" transform="translate(46.121 87.561)" fill="#fff"/>
        <path id="Path_184" data-name="Path 184" d="M91.839,68.045H68.2a.808.808,0,0,1-.807-.807V63.192a.807.807,0,0,0-.8-.807H52.2a.809.809,0,0,0-.807.807v4.045a.805.805,0,0,1-.8.807h-22.8a.806.806,0,0,0-.807.807v7.427a.808.808,0,0,0,.807.807H41.3a.807.807,0,0,1,.282,1.563q-6.218,2.288-14,4.368a.811.811,0,0,0-.6.78v8.009a.805.805,0,0,0,.807.8h2.593a.773.773,0,0,0,.249-.038,140.855,140.855,0,0,0,19.6-7.774.8.8,0,0,1,1.16.723v6.283a.807.807,0,0,0,.807.8h14.39a.8.8,0,0,0,.8-.8V85.524a.807.807,0,0,1,1.162-.723,140.769,140.769,0,0,0,19.6,7.774.784.784,0,0,0,.249.038h3.441a.807.807,0,0,0,.807-.8V84.023a.808.808,0,0,0-.6-.78q-8.3-2.187-14.845-4.593a.807.807,0,0,1,.282-1.563h14.36a.809.809,0,0,0,.807-.807V68.853a.808.808,0,0,0-.807-.807" transform="translate(46.121 106.649)" fill="#fff"/>
        <path id="Path_185" data-name="Path 185" d="M29.07,102.21a12.3,12.3,0,0,1-4.59-2.035v2.092H21.8v-2.035a14.956,14.956,0,0,1-4.506,1.948L16,99.552a10.566,10.566,0,0,0,3.449-.661H16.281V96.724H21.8V96.38H17.772V93.591c-.331.26-.4.317-.577.461L16,91.584a7.185,7.185,0,0,0,2.579-3.146l2.88.127c-.1.233-.187.434-.36.767h1.363a4.487,4.487,0,0,0,.26-.894l2.78.1a4.463,4.463,0,0,1-.29.794h4.07V91.21h-4.46v.344H28.87v1.1H24.827V93H28.87v1.1H24.827v.347H29.71V96.38H24.48v.344H30.1v2.168H26.68a12.05,12.05,0,0,0,3.693.748Zm-8.619-10.6h1.926V91.15H20.451Zm0,1.414h1.926v-.463H20.451Zm0,1.428h1.926v-.463H20.451Z" transform="translate(27.361 151.187)" fill="#fff"/>
        <path id="Path_186" data-name="Path 186" d="M24.423,97.146c-.1,3-.133,3.609-.466,4.576l-1.52-1.4a9.6,9.6,0,0,0,.42-3.352Zm-1.74-2.758c.447.014.523.014.737.014.249-.3.377-.474.536-.664a9.5,9.5,0,0,0-1.5-1.631L23.5,89.768c.114.087.184.144.287.23a10.89,10.89,0,0,0,.55-1.528l2.159.244a22.627,22.627,0,0,1-1.406,2.571c.087.127.173.23.32.417.55-.867.913-1.517,1.217-2.108l1.87.65v-.564h2.663V88.47h2.65v1.211H36.4v2.425H33.806v.837h2.319v2.411H28.853V92.943h2.3v-.837H28.493v-1.5a19.891,19.891,0,0,1-1.929,2.615l1.506-.42a22.258,22.258,0,0,1,.886,3.032h7.126v6.4H33.5v-.447H31.476v.447H28.94V96.208l-1.913.6c-.011-.344-.027-.39-.027-.534a2.113,2.113,0,0,0-.32.046v5.9H24.74V96.6c-1.13.127-1.523.157-1.883.187Zm2.97-.087c.347-.03.71-.057,1.057-.07-.014-.1-.16-.707-.2-.94-.29.347-.623.737-.853,1.011m2.753,2.658a21.165,21.165,0,0,1,.26,3.392l-1.58.2a3.281,3.281,0,0,0,.027-.534,26.831,26.831,0,0,0-.157-2.859Zm3.07,2.512h2.029v-1.3H31.476Z" transform="translate(38.356 151.242)" fill="#fff"/>
        <path id="Path_187" data-name="Path 187" d="M29.618,91.832h5.966v6.1H32.108a10.426,10.426,0,0,1-1.214,4.463l-2.073-2.094a6.263,6.263,0,0,0,.8-2.975Zm-.48-2.888h6.692v2.411H29.138Zm3.056,6.641h.956V94.154h-.956Zm10.009-.3V102.4h-2.65V95.282H38.67c.014,3.926-.97,5.7-2.463,7.218l-2.2-1.8a6.371,6.371,0,0,0,2.084-5.414V89.2a20.3,20.3,0,0,0,6-.81l.954,2.612a17.534,17.534,0,0,1-4.373.623V92.6h4.316v2.685Z" transform="translate(49.27 151.112)" fill="#fff"/>
      </g>
    </g>
  </g>
</svg>
