<svg xmlns="http://www.w3.org/2000/svg" width="847.282" height="35.547" viewBox="0 0 847.282 35.547">
  <g id="Group_131" data-name="Group 131" transform="translate(44 604.893)">
    <path id="Path_12" data-name="Path 12" d="M0,1.128v6.7H8.544V28.241h8.38V7.825h8.544v-6.7Z" transform="translate(-44 -605.56)" fill="#fff"/>
    <path id="Path_13" data-name="Path 13" d="M61.884,28.662a9.824,9.824,0,0,1,3.037-7.407,11.345,11.345,0,0,1,8.193-2.912q5.894,0,8.913,3.42a9.911,9.911,0,0,1,2.422,6.788,9.85,9.85,0,0,1-3.008,7.426q-3,2.893-8.314,2.9a11.666,11.666,0,0,1-7.656-2.408,9.655,9.655,0,0,1-3.588-7.805m7.546-.014a5.914,5.914,0,0,0,1.065,3.881,3.486,3.486,0,0,0,5.344.019,6.13,6.13,0,0,0,1.046-3.977,5.766,5.766,0,0,0-1.055-3.8,3.265,3.265,0,0,0-2.6-1.248,3.409,3.409,0,0,0-2.72,1.267,5.864,5.864,0,0,0-1.074,3.857" transform="translate(-80.622 -615.749)" fill="#fff"/>
    <path id="Path_14" data-name="Path 14" d="M145.349,1.128V28.242h-7.042v-2.9a9.54,9.54,0,0,1-2.7,2.495,7.736,7.736,0,0,1-3.627.854,7,7,0,0,1-6.131-3.055,12.691,12.691,0,0,1-2.115-7.416q0-4.879,2.336-7.469a7.665,7.665,0,0,1,5.948-2.591,8.218,8.218,0,0,1,3.19.595,7.2,7.2,0,0,1,2.543,1.775v-9.4ZM137.8,18.364a5.183,5.183,0,0,0-.979-3.449,3.125,3.125,0,0,0-2.475-1.137,2.725,2.725,0,0,0-2.2,1.094,5.835,5.835,0,0,0-.887,3.66,5.5,5.5,0,0,0,.916,3.521,2.81,2.81,0,0,0,2.264,1.123,3.035,3.035,0,0,0,2.4-1.132,5.631,5.631,0,0,0,.959-3.68" transform="translate(-117.223 -605.56)" fill="#fff"/>
    <path id="Path_15" data-name="Path 15" d="M193.454,25.152l-7.2-.758a8.005,8.005,0,0,1,1.176-2.969,6.44,6.44,0,0,1,2.206-1.876,9.127,9.127,0,0,1,2.85-.887,22.8,22.8,0,0,1,3.919-.316,31.491,31.491,0,0,1,5.44.379,7.005,7.005,0,0,1,3.42,1.583,5.492,5.492,0,0,1,1.516,2.355,8.55,8.55,0,0,1,.557,2.917v8.673a10.7,10.7,0,0,0,.173,2.173,10.013,10.013,0,0,0,.767,2.005H201.22a7.272,7.272,0,0,1-.557-1.156,8.53,8.53,0,0,1-.259-1.247,9.766,9.766,0,0,1-2.941,2.034,12.237,12.237,0,0,1-4.643.816,7.773,7.773,0,0,1-5.335-1.631,5.172,5.172,0,0,1-1.823-4.011,5.282,5.282,0,0,1,1.314-3.684q1.317-1.439,4.845-2.144,4.239-.849,5.493-1.19a26,26,0,0,0,2.662-.9,2.642,2.642,0,0,0-.571-1.943,2.884,2.884,0,0,0-2.015-.556,5.249,5.249,0,0,0-2.777.59,3.258,3.258,0,0,0-1.161,1.741m6.524,3.958q-1.547.554-3.233.978a7.526,7.526,0,0,0-2.907,1.2,1.922,1.922,0,0,0,0,2.84,2.621,2.621,0,0,0,1.818.561,4.671,4.671,0,0,0,2.341-.609,3.7,3.7,0,0,0,1.535-1.487,4.979,4.979,0,0,0,.451-2.283Z" transform="translate(-153.873 -615.749)" fill="#fff"/>
    <path id="Path_16" data-name="Path 16" d="M244.515,19.437h7.944l4.049,13.072,3.766-13.072h7.416l-7.8,20.983a12.729,12.729,0,0,1-2.715,4.85q-1.957,1.778-5.973,1.78a42.914,42.914,0,0,1-5.027-.446l-.59-5.253a11.883,11.883,0,0,0,3.622.518,3.5,3.5,0,0,0,2.149-.609,4.586,4.586,0,0,0,1.4-2.188Z" transform="translate(-188.701 -616.396)" fill="#fff"/>
    <path id="Path_17" data-name="Path 17" d="M304.1,0h8.045V6.193a9.121,9.121,0,0,1-1.425,5.411,11.492,11.492,0,0,1-4.864,3.487L304.1,11.8a8.417,8.417,0,0,0,2.95-1.986,4.045,4.045,0,0,0,.9-2.341H304.1Z" transform="translate(-223.959 -604.893)" fill="#fff"/>
    <path id="Path_18" data-name="Path 18" d="M326.611,32.975l7.469-.705a3.657,3.657,0,0,0,1.3,1.9,3.842,3.842,0,0,0,2.221.576,3.742,3.742,0,0,0,2.346-.647,1.445,1.445,0,0,0,.647-1.2,1.375,1.375,0,0,0-.849-1.257,15.666,15.666,0,0,0-3.238-.777,34.28,34.28,0,0,1-5.445-1.262,5.741,5.741,0,0,1-2.571-1.971,5.109,5.109,0,0,1-1.046-3.157,5.163,5.163,0,0,1,1.127-3.344,6.721,6.721,0,0,1,3.109-2.1,16.4,16.4,0,0,1,5.306-.7,18.285,18.285,0,0,1,5.19.537,6.81,6.81,0,0,1,2.792,1.665,8.7,8.7,0,0,1,1.856,3.051l-7.138.7a2.448,2.448,0,0,0-.921-1.391,3.806,3.806,0,0,0-2.149-.59,3.038,3.038,0,0,0-1.857.451,1.359,1.359,0,0,0-.585,1.1,1.167,1.167,0,0,0,.743,1.089,11.731,11.731,0,0,0,3.214.667,21.918,21.918,0,0,1,5.588,1.185,6.162,6.162,0,0,1,2.8,2.159,5.31,5.31,0,0,1,.969,3.085,6.064,6.064,0,0,1-1.027,3.31,6.926,6.926,0,0,1-3.233,2.557,15.59,15.59,0,0,1-6.02.954q-5.382,0-7.666-1.535a6.906,6.906,0,0,1-2.931-4.365" transform="translate(-237.284 -615.749)" fill="#fff"/>
    <path id="Path_19" data-name="Path 19" d="M429.823,18.79h7.047v18.55l.019.868a8.187,8.187,0,0,1-.787,3.521,7.4,7.4,0,0,1-2.087,2.711,8.227,8.227,0,0,1-3.315,1.5,20.639,20.639,0,0,1-4.6.465q-5.915,0-8.126-1.775a5.8,5.8,0,0,1-2.212-4.754c0-.249.014-.58.038-1l7.306.83a2.357,2.357,0,0,0,.849,1.405,3.6,3.6,0,0,0,2.092.576,3.16,3.16,0,0,0,2.432-.873,4.453,4.453,0,0,0,.8-3.032V34.8a7.763,7.763,0,0,1-2.216,1.9,7.861,7.861,0,0,1-3.756.926,7.447,7.447,0,0,1-6.361-3.44,10.982,10.982,0,0,1-1.722-6.452q0-4.591,2.221-6.994a7.535,7.535,0,0,1,5.809-2.4,8.139,8.139,0,0,1,3.78.777,8.249,8.249,0,0,1,2.782,2.571Zm-7.08,9.522a4.648,4.648,0,0,0,.907,3.152,3.213,3.213,0,0,0,4.74-.033,4.674,4.674,0,0,0,.954-3.209,4.819,4.819,0,0,0-1-3.281A3.124,3.124,0,0,0,425.9,23.8a2.827,2.827,0,0,0-2.3,1.046,5.48,5.48,0,0,0-.858,3.468" transform="translate(-289.727 -615.749)" fill="#fff"/>
    <path id="Path_20" data-name="Path 20" d="M477.114,28.662a9.824,9.824,0,0,1,3.037-7.407,11.345,11.345,0,0,1,8.193-2.912q5.894,0,8.913,3.42a9.91,9.91,0,0,1,2.422,6.788,9.85,9.85,0,0,1-3.008,7.426q-3,2.893-8.313,2.9a11.667,11.667,0,0,1-7.656-2.408,9.655,9.655,0,0,1-3.588-7.805m7.546-.014a5.914,5.914,0,0,0,1.065,3.881,3.486,3.486,0,0,0,5.344.019,6.129,6.129,0,0,0,1.046-3.977,5.766,5.766,0,0,0-1.055-3.8,3.265,3.265,0,0,0-2.6-1.248,3.409,3.409,0,0,0-2.72,1.267,5.864,5.864,0,0,0-1.074,3.857" transform="translate(-326.349 -615.749)" fill="#fff"/>
    <path id="Path_21" data-name="Path 21" d="M539,28.662a9.825,9.825,0,0,1,3.036-7.407,11.347,11.347,0,0,1,8.194-2.912q5.893,0,8.913,3.42a9.911,9.911,0,0,1,2.422,6.788,9.85,9.85,0,0,1-3.008,7.426q-3,2.893-8.314,2.9a11.667,11.667,0,0,1-7.656-2.408A9.655,9.655,0,0,1,539,28.662m7.546-.014a5.913,5.913,0,0,0,1.065,3.881,3.486,3.486,0,0,0,5.344.019A6.129,6.129,0,0,0,554,28.571a5.765,5.765,0,0,0-1.055-3.8,3.265,3.265,0,0,0-2.605-1.248,3.409,3.409,0,0,0-2.72,1.267,5.864,5.864,0,0,0-1.074,3.857" transform="translate(-362.971 -615.749)" fill="#fff"/>
    <path id="Path_22" data-name="Path 22" d="M622.474,1.128V28.242h-7.042v-2.9a9.539,9.539,0,0,1-2.7,2.495,7.736,7.736,0,0,1-3.627.854,7,7,0,0,1-6.131-3.055,12.691,12.691,0,0,1-2.115-7.416q0-4.879,2.336-7.469a7.665,7.665,0,0,1,5.948-2.591,8.217,8.217,0,0,1,3.19.595,7.2,7.2,0,0,1,2.543,1.775v-9.4Zm-7.546,17.236a5.182,5.182,0,0,0-.979-3.449,3.125,3.125,0,0,0-2.475-1.137,2.725,2.725,0,0,0-2.2,1.094,5.834,5.834,0,0,0-.887,3.66,5.5,5.5,0,0,0,.916,3.521,2.81,2.81,0,0,0,2.264,1.123,3.036,3.036,0,0,0,2.4-1.132,5.632,5.632,0,0,0,.959-3.68" transform="translate(-399.579 -605.56)" fill="#fff"/>
    <path id="Path_23" data-name="Path 23" d="M696.128,18.79h7.028v2.864a9.872,9.872,0,0,1,3.065-2.552,8.436,8.436,0,0,1,3.732-.758,7.135,7.135,0,0,1,3.723.835,6.2,6.2,0,0,1,2.24,2.475,11.277,11.277,0,0,1,3.233-2.615,8.3,8.3,0,0,1,3.6-.7,6.468,6.468,0,0,1,4.932,1.876q1.778,1.878,1.775,5.877V38.43h-7.546V27.243a3.136,3.136,0,0,0-.518-1.981,2.263,2.263,0,0,0-1.875-1.017,2.668,2.668,0,0,0-2.14.96,4.767,4.767,0,0,0-.81,3.089V38.43h-7.547V27.612a6.739,6.739,0,0,0-.149-1.761,2.432,2.432,0,0,0-.835-1.19,2.23,2.23,0,0,0-1.39-.456,2.668,2.668,0,0,0-2.135.983,4.934,4.934,0,0,0-.835,3.214V38.43h-7.545Z" transform="translate(-455.959 -615.749)" fill="#fff"/>
    <path id="Path_24" data-name="Path 24" d="M786.509,28.662a9.824,9.824,0,0,1,3.037-7.407,11.345,11.345,0,0,1,8.193-2.912q5.894,0,8.913,3.42a9.91,9.91,0,0,1,2.422,6.788,9.85,9.85,0,0,1-3.008,7.426q-3,2.893-8.314,2.9a11.666,11.666,0,0,1-7.656-2.408,9.655,9.655,0,0,1-3.588-7.805m7.546-.014a5.914,5.914,0,0,0,1.065,3.881,3.486,3.486,0,0,0,5.344.019,6.13,6.13,0,0,0,1.046-3.977,5.766,5.766,0,0,0-1.055-3.8,3.265,3.265,0,0,0-2.605-1.248,3.409,3.409,0,0,0-2.72,1.267,5.864,5.864,0,0,0-1.074,3.857" transform="translate(-509.445 -615.749)" fill="#fff"/>
    <path id="Path_25" data-name="Path 25" d="M848.393,28.662a9.825,9.825,0,0,1,3.036-7.407,11.346,11.346,0,0,1,8.194-2.912q5.894,0,8.913,3.42a9.91,9.91,0,0,1,2.422,6.788,9.85,9.85,0,0,1-3.008,7.426q-3,2.893-8.314,2.9a11.667,11.667,0,0,1-7.656-2.408,9.655,9.655,0,0,1-3.588-7.805m7.546-.014A5.914,5.914,0,0,0,857,32.529a3.486,3.486,0,0,0,5.344.019,6.129,6.129,0,0,0,1.046-3.977,5.765,5.765,0,0,0-1.055-3.8,3.265,3.265,0,0,0-2.605-1.248,3.409,3.409,0,0,0-2.72,1.267,5.864,5.864,0,0,0-1.074,3.857" transform="translate(-546.067 -615.749)" fill="#fff"/>
    <path id="Path_26" data-name="Path 26" d="M931.869,1.128V28.242h-7.042v-2.9a9.539,9.539,0,0,1-2.7,2.495,7.737,7.737,0,0,1-3.627.854,7,7,0,0,1-6.131-3.055,12.69,12.69,0,0,1-2.115-7.416q0-4.879,2.336-7.469a7.665,7.665,0,0,1,5.948-2.591,8.218,8.218,0,0,1,3.19.595,7.2,7.2,0,0,1,2.543,1.775v-9.4Zm-7.546,17.236a5.183,5.183,0,0,0-.979-3.449,3.126,3.126,0,0,0-2.475-1.137,2.725,2.725,0,0,0-2.2,1.094,5.835,5.835,0,0,0-.887,3.66,5.5,5.5,0,0,0,.916,3.521,2.81,2.81,0,0,0,2.264,1.123,3.035,3.035,0,0,0,2.4-1.132,5.631,5.631,0,0,0,.959-3.68" transform="translate(-582.675 -605.56)" fill="#fff"/>
    <path id="Path_27" data-name="Path 27" d="M1006.063,1.128h7.527V6.251h-7.527Zm0,7.474h7.527v19.64h-7.527Z" transform="translate(-639.374 -605.56)" fill="#fff"/>
    <path id="Path_28" data-name="Path 28" d="M1033.021,32.975l7.469-.705a3.656,3.656,0,0,0,1.3,1.9,3.842,3.842,0,0,0,2.221.576,3.742,3.742,0,0,0,2.346-.647,1.445,1.445,0,0,0,.647-1.2,1.375,1.375,0,0,0-.849-1.257,15.669,15.669,0,0,0-3.238-.777,34.285,34.285,0,0,1-5.445-1.262,5.739,5.739,0,0,1-2.571-1.971,5.109,5.109,0,0,1-1.046-3.157,5.162,5.162,0,0,1,1.128-3.344,6.72,6.72,0,0,1,3.109-2.1,16.4,16.4,0,0,1,5.306-.7,18.285,18.285,0,0,1,5.19.537,6.807,6.807,0,0,1,2.792,1.665,8.7,8.7,0,0,1,1.856,3.051l-7.138.7a2.446,2.446,0,0,0-.921-1.391,3.806,3.806,0,0,0-2.149-.59,3.038,3.038,0,0,0-1.857.451,1.359,1.359,0,0,0-.585,1.1,1.167,1.167,0,0,0,.743,1.089,11.731,11.731,0,0,0,3.214.667,21.915,21.915,0,0,1,5.589,1.185,6.161,6.161,0,0,1,2.8,2.159,5.307,5.307,0,0,1,.969,3.085,6.061,6.061,0,0,1-1.027,3.31,6.926,6.926,0,0,1-3.233,2.557,15.593,15.593,0,0,1-6.021.954q-5.383,0-7.666-1.535a6.906,6.906,0,0,1-2.931-4.365" transform="translate(-655.327 -615.749)" fill="#fff"/>
    <path id="Path_29" data-name="Path 29" d="M62.166,144.321l7.469-.7a3.655,3.655,0,0,0,1.3,1.9,3.841,3.841,0,0,0,2.221.576,3.742,3.742,0,0,0,2.346-.647,1.445,1.445,0,0,0,.647-1.2,1.375,1.375,0,0,0-.849-1.257,15.667,15.667,0,0,0-3.238-.777,34.236,34.236,0,0,1-5.445-1.262,5.738,5.738,0,0,1-2.571-1.971A5.109,5.109,0,0,1,63,135.825a5.162,5.162,0,0,1,1.127-3.344,6.721,6.721,0,0,1,3.109-2.1,16.4,16.4,0,0,1,5.306-.7,18.285,18.285,0,0,1,5.19.537,6.81,6.81,0,0,1,2.792,1.665,8.7,8.7,0,0,1,1.856,3.051l-7.138.7a2.448,2.448,0,0,0-.921-1.391,3.806,3.806,0,0,0-2.149-.59,3.038,3.038,0,0,0-1.857.451,1.36,1.36,0,0,0-.585,1.1,1.167,1.167,0,0,0,.743,1.089,11.73,11.73,0,0,0,3.214.667,21.918,21.918,0,0,1,5.589,1.185,6.162,6.162,0,0,1,2.8,2.159,5.31,5.31,0,0,1,.969,3.085,6.064,6.064,0,0,1-1.027,3.31,6.925,6.925,0,0,1-3.233,2.557,15.589,15.589,0,0,1-6.02.954q-5.382,0-7.666-1.535a6.906,6.906,0,0,1-2.931-4.365" transform="translate(349.256 -727.095)" fill="#fff"/>
    <path id="Path_30" data-name="Path 30" d="M122.193,157.25V130.136h7.047v2.9a9.311,9.311,0,0,1,2.682-2.48,7.727,7.727,0,0,1,3.641-.868,7.059,7.059,0,0,1,6.1,3.018,12.493,12.493,0,0,1,2.154,7.45q0,4.9-2.35,7.484a7.688,7.688,0,0,1-5.934,2.581,8.28,8.28,0,0,1-3.175-.595,7.548,7.548,0,0,1-2.562-1.756v9.378Zm7.546-17.241a5.169,5.169,0,0,0,.978,3.459,3.146,3.146,0,0,0,2.48,1.132,2.755,2.755,0,0,0,2.2-1.084,5.861,5.861,0,0,0,.887-3.669,5.476,5.476,0,0,0-.926-3.507,2.833,2.833,0,0,0-2.255-1.118,3.034,3.034,0,0,0-2.408,1.127,5.632,5.632,0,0,0-.959,3.66" transform="translate(313.733 -727.095)" fill="#fff"/>
    <path id="Path_31" data-name="Path 31" d="M181.715,140.009a9.825,9.825,0,0,1,3.036-7.407,11.346,11.346,0,0,1,8.194-2.912q5.894,0,8.913,3.42a10.694,10.694,0,0,1-.585,14.214q-3,2.893-8.314,2.9a11.666,11.666,0,0,1-7.656-2.408,9.655,9.655,0,0,1-3.588-7.805m7.546-.014a5.914,5.914,0,0,0,1.065,3.881,3.486,3.486,0,0,0,5.344.019,6.13,6.13,0,0,0,1.046-3.977,5.766,5.766,0,0,0-1.055-3.8,3.265,3.265,0,0,0-2.605-1.247,3.409,3.409,0,0,0-2.72,1.267A5.864,5.864,0,0,0,189.261,140" transform="translate(278.509 -727.095)" fill="#fff"/>
    <path id="Path_32" data-name="Path 32" d="M245.878,130.136h7.009v3.2a10.468,10.468,0,0,1,3.18-2.8,8.382,8.382,0,0,1,3.924-.844,6.424,6.424,0,0,1,4.893,1.861q1.763,1.857,1.765,5.742v12.482h-7.565v-10.8a3.937,3.937,0,0,0-.686-2.614,2.439,2.439,0,0,0-1.924-.768,2.729,2.729,0,0,0-2.216,1.036,6,6,0,0,0-.854,3.718v9.431h-7.527Z" transform="translate(240.538 -727.095)" fill="#fff"/>
    <path id="Path_33" data-name="Path 33" d="M304.507,144.321l7.469-.7a3.655,3.655,0,0,0,1.3,1.9,3.842,3.842,0,0,0,2.221.576,3.742,3.742,0,0,0,2.346-.647,1.445,1.445,0,0,0,.647-1.2,1.375,1.375,0,0,0-.849-1.257,15.665,15.665,0,0,0-3.238-.777,34.237,34.237,0,0,1-5.445-1.262,5.738,5.738,0,0,1-2.571-1.971,5.109,5.109,0,0,1-1.046-3.157,5.162,5.162,0,0,1,1.128-3.344,6.72,6.72,0,0,1,3.109-2.1,16.4,16.4,0,0,1,5.306-.7,18.285,18.285,0,0,1,5.19.537,6.81,6.81,0,0,1,2.792,1.665,8.7,8.7,0,0,1,1.856,3.051l-7.138.7a2.448,2.448,0,0,0-.921-1.391,3.806,3.806,0,0,0-2.149-.59,3.038,3.038,0,0,0-1.857.451,1.36,1.36,0,0,0-.585,1.1,1.167,1.167,0,0,0,.743,1.089,11.73,11.73,0,0,0,3.214.667,21.919,21.919,0,0,1,5.588,1.185,6.162,6.162,0,0,1,2.8,2.159,5.31,5.31,0,0,1,.969,3.085,6.064,6.064,0,0,1-1.027,3.31,6.926,6.926,0,0,1-3.233,2.557,15.589,15.589,0,0,1-6.02.954q-5.382,0-7.666-1.535a6.906,6.906,0,0,1-2.931-4.365" transform="translate(205.842 -727.095)" fill="#fff"/>
    <path id="Path_34" data-name="Path 34" d="M362.172,140.009a9.824,9.824,0,0,1,3.037-7.407,11.345,11.345,0,0,1,8.193-2.912q5.894,0,8.913,3.42a10.695,10.695,0,0,1-.585,14.214q-3,2.893-8.314,2.9a11.666,11.666,0,0,1-7.656-2.408,9.655,9.655,0,0,1-3.588-7.805m7.546-.014a5.914,5.914,0,0,0,1.065,3.881,3.486,3.486,0,0,0,5.344.019,6.129,6.129,0,0,0,1.046-3.977,5.766,5.766,0,0,0-1.055-3.8,3.265,3.265,0,0,0-2.6-1.247,3.409,3.409,0,0,0-2.72,1.267A5.864,5.864,0,0,0,369.718,140" transform="translate(171.717 -727.095)" fill="#fff"/>
    <path id="Path_35" data-name="Path 35" d="M426.511,130.136h7.042v3.214a7.727,7.727,0,0,1,2.1-2.873,4.429,4.429,0,0,1,2.672-.787,7.958,7.958,0,0,1,3.646,1.036l-2.331,5.364a5.945,5.945,0,0,0-2.111-.557,2.6,2.6,0,0,0-2.293,1.223q-1.166,1.72-1.165,6.438v6.582h-7.561Z" transform="translate(133.642 -727.095)" fill="#fff"/>
    <path id="Path_36" data-name="Path 36" d="M489.45,141.822H474.358a4.854,4.854,0,0,0,.979,2.7,3.581,3.581,0,0,0,2.85,1.276,4.23,4.23,0,0,0,2.106-.556A4.851,4.851,0,0,0,481.607,144l7.416.686a10.665,10.665,0,0,1-4.107,4.245,14.944,14.944,0,0,1-6.9,1.285,14.113,14.113,0,0,1-6.14-1.1,9.007,9.007,0,0,1-3.708-3.5,10.544,10.544,0,0,1-1.468-5.627,9.9,9.9,0,0,1,2.95-7.455q2.943-2.85,8.146-2.85a14.533,14.533,0,0,1,6.658,1.276,8.649,8.649,0,0,1,3.718,3.7,13.548,13.548,0,0,1,1.276,6.308Zm-7.656-3.607a5.04,5.04,0,0,0-1.175-3.123,3.683,3.683,0,0,0-5.373.48,5.182,5.182,0,0,0-.868,2.643Z" transform="translate(109.857 -727.095)" fill="#fff"/>
    <path id="Path_37" data-name="Path 37" d="M550.2,112.474v27.114H543.16v-2.9a9.54,9.54,0,0,1-2.7,2.495,7.737,7.737,0,0,1-3.627.854,7,7,0,0,1-6.131-3.055,12.69,12.69,0,0,1-2.115-7.416q0-4.879,2.336-7.469a7.665,7.665,0,0,1,5.948-2.591,8.219,8.219,0,0,1,3.19.595,7.2,7.2,0,0,1,2.543,1.775v-9.4Zm-7.546,17.236a5.183,5.183,0,0,0-.978-3.449,3.125,3.125,0,0,0-2.475-1.137,2.725,2.725,0,0,0-2.2,1.094,5.835,5.835,0,0,0-.888,3.66,5.5,5.5,0,0,0,.916,3.521,2.809,2.809,0,0,0,2.264,1.123,3.036,3.036,0,0,0,2.4-1.132,5.631,5.631,0,0,0,.959-3.68" transform="translate(73.235 -716.906)" fill="#fff"/>
    <path id="Path_38" data-name="Path 38" d="M623.82,112.474h7.6v9.4a7.4,7.4,0,0,1,2.562-1.775,8.2,8.2,0,0,1,3.175-.595,7.671,7.671,0,0,1,5.934,2.581q2.353,2.576,2.351,7.407a14.049,14.049,0,0,1-1.074,5.67,7.971,7.971,0,0,1-2.969,3.66,7.652,7.652,0,0,1-4.207,1.214,7.772,7.772,0,0,1-3.622-.854,9.45,9.45,0,0,1-2.7-2.495v2.9H623.82Zm7.546,17.236a5.729,5.729,0,0,0,.95,3.675,3.019,3.019,0,0,0,2.418,1.137A2.815,2.815,0,0,0,637,133.4a6,6,0,0,0,.916-3.761,5.354,5.354,0,0,0-.9-3.42,2.725,2.725,0,0,0-2.173-1.094,3.144,3.144,0,0,0-2.509,1.137,5.208,5.208,0,0,0-.969,3.449" transform="translate(16.877 -716.906)" fill="#fff"/>
    <path id="Path_39" data-name="Path 39" d="M680.31,130.783h7.944l4.049,13.072,3.766-13.072h7.417l-7.8,20.983a12.725,12.725,0,0,1-2.715,4.85q-1.957,1.778-5.972,1.78a42.915,42.915,0,0,1-5.028-.446l-.59-5.253a11.882,11.882,0,0,0,3.622.518,3.5,3.5,0,0,0,2.149-.609,4.587,4.587,0,0,0,1.4-2.188Z" transform="translate(-16.553 -727.741)" fill="#fff"/>
    <path id="Path_40" data-name="Path 40" d="M787.185,135.111h-9.513l-1.319,4.476H767.8l10.189-27.114h9.139l10.189,27.114h-8.774Zm-1.737-5.862-2.993-9.748-2.96,9.748Z" transform="translate(-68.328 -716.906)" fill="#fff"/>
    <path id="Path_41" data-name="Path 41" d="M845.408,112.474H853.1v13.993l5.622-6.519h9.268l-7.047,6.879,7.45,12.76h-8.481l-3.977-7.872-2.835,2.768v5.1h-7.694Z" transform="translate(-114.255 -716.907)" fill="#fff"/>
    <path id="Path_42" data-name="Path 42" d="M907.973,112.474H915.5V117.6h-7.527Zm0,7.474H915.5v19.64h-7.527Z" transform="translate(-151.281 -716.906)" fill="#fff"/>
    <path id="Path_43" data-name="Path 43" d="M932.515,119.948h7.546V139a17.569,17.569,0,0,1-.528,5.157,4.777,4.777,0,0,1-1.953,2.461,7.352,7.352,0,0,1-4.068.945,28.57,28.57,0,0,1-5.421-.647l1.132-5.474a7.716,7.716,0,0,0,1.329.182,1.733,1.733,0,0,0,1.464-.657,4.706,4.706,0,0,0,.5-2.615Zm0-7.474h7.546v5.181h-7.546Z" transform="translate(-163.187 -716.906)" fill="#fff"/>
    <path id="Path_44" data-name="Path 44" d="M966.825,130.356a9.826,9.826,0,0,1,3.036-7.407,11.347,11.347,0,0,1,8.194-2.912q5.894,0,8.913,3.42a10.695,10.695,0,0,1-.585,14.214q-3,2.893-8.314,2.9a11.666,11.666,0,0,1-7.656-2.408,9.655,9.655,0,0,1-3.588-7.805m5.291-16.977H984.08v4.015H972.116Zm2.255,16.963a5.914,5.914,0,0,0,1.065,3.881,3.486,3.486,0,0,0,5.344.019,6.13,6.13,0,0,0,1.046-3.977,5.766,5.766,0,0,0-1.055-3.8,3.265,3.265,0,0,0-2.605-1.248,3.409,3.409,0,0,0-2.72,1.267,5.863,5.863,0,0,0-1.074,3.857" transform="translate(-186.108 -717.442)" fill="#fff"/>
  </g>
</svg>
