<?xml version="1.0" encoding="UTF-8" standalone="no"?>
<!-- Created with Inkscape (http://www.inkscape.org/) -->

<svg
  width="99.453072mm"
  height="89.772202mm"
  viewBox="0 0 99.453072 89.772202"
  version="1.1"
  id="svg1"
  xml:space="preserve"
  xmlns="http://www.w3.org/2000/svg"
  xmlns:svg="http://www.w3.org/2000/svg"
>
  <g>
    <path
      fill="currentcolor"
      d="M 35.68841,48.694263 C 35.528601,48.694263 35.374437,48.754943 35.257315,48.863953 L 29.862285,53.889623 H 29.75751 V 49.328203 C 29.75751,48.978253 29.473524,48.694263 29.123568,48.694263 H 24.46161 C 24.111655,48.694263 23.82908,48.978253 23.82908,49.328203 V 65.408523 C 23.82908,65.758483 24.111655,66.042463 24.46161,66.042463 H 29.123568 C 29.473524,66.042463 29.75751,65.758483 29.75751,65.408523 V 58.712803 H 29.862285 L 35.248849,65.791643 C 35.370204,65.950033 35.556118,66.042463 35.753321,66.042463 H 41.895182 C 42.428582,66.042463 42.723504,65.423693 42.388365,65.010233 L 35.703579,56.753123 C 35.496851,56.496653 35.519076,56.126233 35.756143,55.897283 L 42.093443,49.784353 C 42.504429,49.388883 42.224676,48.694263 41.653882,48.694263 Z"
    />
    <path
      fill="currentcolor"
      d="M 0.163511,72.061013 H 5.761833 V 73.533353 H 3.883529 V 78.023583 H 2.041815 V 73.533353 H 0.163511 Z M 5.716036,75.876083 Q 5.716036,74.887743 6.382793,74.249183 7.04955,73.606563 8.18385,73.606563 9.480775,73.606563 10.143467,74.358993 10.676059,74.965023 10.676059,75.851683 10.676059,76.848153 10.013367,77.486713 9.354741,78.121203 8.187916,78.121203 7.147124,78.121203 6.50476,77.592453 5.716036,76.937633 5.716036,75.876083 Z M 7.374797,75.872013 Q 7.374797,76.449563 7.606536,76.726133 7.84234,77.002703 8.196047,77.002703 8.553819,77.002703 8.781492,76.730193 9.013231,76.457693 9.013231,75.855743 9.013231,75.294463 8.781492,75.021963 8.549754,74.745383 8.208244,74.745383 7.846407,74.745383 7.610601,75.026023 7.374797,75.302603 7.374797,75.872013 Z M 16.018241,72.061013 V 78.023583 H 14.469251 V 77.385033 Q 14.144004,77.791753 13.875674,77.934103 13.517903,78.121203 13.078818,78.121203 12.196584,78.121203 11.729042,77.450103 11.265564,76.779003 11.265564,75.819143 11.265564,74.745383 11.777829,74.175973 12.294158,73.606563 13.08695,73.606563 13.473181,73.606563 13.786231,73.736713 14.103348,73.866863 14.347283,74.127173 V 72.061013 Z M 14.35948,75.851683 Q 14.35948,75.343273 14.144004,75.095163 13.928527,74.843003 13.599214,74.843003 13.310557,74.843003 13.115408,75.082963 12.92026,75.322933 12.92026,75.888283 12.92026,76.417023 13.119474,76.665123 13.322754,76.909163 13.619542,76.909163 13.936658,76.909163 14.148069,76.661053 14.35948,76.412953 14.35948,75.851683 Z M 18.534838,75.103313 16.953322,74.936543 Q 17.042765,74.521693 17.209454,74.285793 17.38021,74.045823 17.697326,73.870933 17.924999,73.744843 18.323427,73.675703 18.721855,73.606563 19.185332,73.606563 19.929336,73.606563 20.380617,73.691973 20.831898,73.773323 21.132752,74.037693 21.344162,74.220713 21.466131,74.558293 21.588098,74.891803 21.588098,75.196843 V 77.104383 Q 21.588098,77.409423 21.624689,77.584323 21.665344,77.755143 21.795443,78.023583 H 20.242386 Q 20.148878,77.856823 20.120419,77.771423 20.09196,77.681933 20.063501,77.494843 19.738253,77.808013 19.417071,77.942243 18.977987,78.121203 18.396608,78.121203 17.624145,78.121203 17.221651,77.763273 16.823224,77.405363 16.823224,76.880683 16.823224,76.388553 17.11188,76.071303 17.400538,75.754063 18.177066,75.599513 19.108086,75.412413 19.384547,75.339203 19.661007,75.261933 19.969993,75.139903 19.969993,74.834863 19.843959,74.712853 19.717926,74.590833 19.400809,74.590833 18.99425,74.590833 18.79097,74.720983 18.632412,74.822663 18.534838,75.103313 Z M 19.969993,75.973693 Q 19.628483,76.095713 19.258514,76.189253 18.75438,76.323473 18.620215,76.453633 18.481985,76.587853 18.481985,76.758673 18.481985,76.953903 18.61615,77.079993 18.75438,77.202003 19.018643,77.202003 19.295104,77.202003 19.530908,77.067783 19.770778,76.933563 19.868352,76.742403 19.969993,76.547173 19.969993,76.238063 Z M 22.100356,73.704173 H 23.848561 L 24.738926,76.579713 25.564242,73.704173 H 27.194545 L 25.48293,78.320493 Q 25.190207,79.109543 24.885288,79.386103 24.454335,79.776563 23.572101,79.776563 23.214329,79.776563 22.46626,79.678943 L 22.336161,78.523853 Q 22.693933,78.637733 23.133017,78.637733 23.42574,78.637733 23.604626,78.503513 23.787578,78.369303 23.913611,78.023583 Z M 27.450668,71.959333 H 29.219201 V 73.321853 Q 29.219201,74.074293 28.906151,74.513563 28.5931,74.948743 27.8369,75.278193 L 27.450668,74.554223 Q 27.922278,74.334593 28.097098,74.119033 28.275984,73.899403 28.296312,73.602493 H 27.450668 Z M 29.470258,76.827813 31.112757,76.673253 Q 31.214397,76.966103 31.397348,77.092183 31.5803,77.218263 31.88522,77.218263 32.218598,77.218263 32.40155,77.075913 32.543846,76.970163 32.543846,76.811543 32.543846,76.632583 32.356828,76.534973 32.222664,76.465833 31.64535,76.364153 30.783444,76.213663 30.446,76.087573 30.112621,75.957423 29.880882,75.652383 29.653209,75.347333 29.653209,74.956893 29.653209,74.529823 29.90121,74.220713 30.149212,73.911603 30.58423,73.761113 31.019249,73.606563 31.751055,73.606563 32.523517,73.606563 32.889421,73.724513 33.259391,73.842463 33.503326,74.090563 33.751327,74.338663 33.913951,74.761663 L 32.344632,74.916213 Q 32.283648,74.708783 32.141352,74.611173 31.946203,74.481023 31.669743,74.481023 31.389217,74.481023 31.259118,74.582703 31.133085,74.680313 31.133085,74.822663 31.133085,74.981283 31.295709,75.062633 31.458332,75.143973 32.003122,75.209053 32.828438,75.302603 33.230931,75.469353 33.633425,75.636113 33.844836,75.945223 34.060312,76.254333 34.060312,76.624453 34.060312,76.998643 33.832638,77.352483 33.609032,77.706333 33.121161,77.917833 32.637354,78.125263 31.799842,78.125263 30.616754,78.125263 30.112621,77.787683 29.612554,77.450103 29.470258,76.827813 Z M 40.630302,73.704173 H 42.179294 V 77.783623 L 42.183359,77.974783 Q 42.183359,78.381503 42.008539,78.747553 41.837784,79.117673 41.549127,79.345433 41.264535,79.573203 40.821386,79.674883 40.382302,79.776563 39.813119,79.776563 38.512129,79.776563 38.024258,79.386103 37.540452,78.995653 37.540452,78.340823 37.540452,78.259483 37.548583,78.121203 L 39.154492,78.304223 Q 39.215477,78.527923 39.341509,78.613333 39.524461,78.739413 39.800922,78.739413 40.158694,78.739413 40.333515,78.548253 40.5124,78.357093 40.5124,77.881233 V 77.226403 Q 40.268465,77.515173 40.024529,77.645333 39.642363,77.848693 39.199214,77.848693 38.333242,77.848693 37.80065,77.092183 37.42255,76.555313 37.42255,75.672723 37.42255,74.664043 37.910421,74.135303 38.398292,73.606563 39.187018,73.606563 39.691151,73.606563 40.016399,73.777393 40.345711,73.948203 40.630302,74.342733 Z M 39.073181,75.798803 Q 39.073181,76.266533 39.272394,76.494303 39.471609,76.717993 39.796856,76.717993 40.105842,76.717993 40.313187,76.486173 40.524598,76.250273 40.524598,75.778463 40.524598,75.306673 40.305055,75.058573 40.085514,74.806403 39.768397,74.806403 39.451281,74.806403 39.260198,75.038223 39.073181,75.265993 39.073181,75.798803 Z M 42.976144,75.876083 Q 42.976144,74.887743 43.642901,74.249183 44.309659,73.606563 45.443959,73.606563 46.740883,73.606563 47.403574,74.358993 47.936168,74.965023 47.936168,75.851683 47.936168,76.848153 47.273476,77.486713 46.614849,78.121203 45.448024,78.121203 44.407233,78.121203 43.764869,77.592453 42.976144,76.937633 42.976144,75.876083 Z M 44.634906,75.872013 Q 44.634906,76.449563 44.866645,76.726133 45.102449,77.002703 45.456156,77.002703 45.813928,77.002703 46.041601,76.730193 46.27334,76.457693 46.27334,75.855743 46.27334,75.294463 46.041601,75.021963 45.809862,74.745383 45.468352,74.745383 45.106514,74.745383 44.87071,75.026023 44.634906,75.302603 44.634906,75.872013 Z M 48.529737,75.876083 Q 48.529737,74.887743 49.196495,74.249183 49.863253,73.606563 50.997553,73.606563 52.294476,73.606563 52.957168,74.358993 53.489761,74.965023 53.489761,75.851683 53.489761,76.848153 52.82707,77.486713 52.168444,78.121203 51.001618,78.121203 49.960827,78.121203 49.318463,77.592453 48.529737,76.937633 48.529737,75.876083 Z M 50.1885,75.872013 Q 50.1885,76.449563 50.420239,76.726133 50.656043,77.002703 51.009749,77.002703 51.367522,77.002703 51.595195,76.730193 51.826934,76.457693 51.826934,75.855743 51.826934,75.294463 51.595195,75.021963 51.363456,74.745383 51.021946,74.745383 50.660108,74.745383 50.424304,75.026023 50.1885,75.302603 50.1885,75.872013 Z M 58.831944,72.061013 V 78.023583 H 57.282954 V 77.385033 Q 56.957705,77.791753 56.689377,77.934103 56.331604,78.121203 55.89252,78.121203 55.010287,78.121203 54.542743,77.450103 54.079266,76.779003 54.079266,75.819143 54.079266,74.745383 54.59153,74.175973 55.107861,73.606563 55.900651,73.606563 56.286883,73.606563 56.599934,73.736713 56.91705,73.866863 57.160985,74.127173 V 72.061013 Z M 57.173182,75.851683 Q 57.173182,75.343273 56.957705,75.095163 56.742229,74.843003 56.412917,74.843003 56.124259,74.843003 55.929111,75.082963 55.733962,75.322933 55.733962,75.888283 55.733962,76.417023 55.933176,76.665123 56.136456,76.909163 56.433245,76.909163 56.75036,76.909163 56.961772,76.661053 57.173182,76.412953 57.173182,75.851683 Z M 62.629198,73.704173 H 64.174117 V 74.334593 Q 64.507507,73.940073 64.844947,73.773323 65.186457,73.606563 65.666197,73.606563 66.182527,73.606563 66.483387,73.789583 66.784227,73.972613 66.975317,74.334593 67.365617,73.911603 67.686797,73.761113 68.007977,73.606563 68.479587,73.606563 69.174797,73.606563 69.565097,74.021423 69.955397,74.432213 69.955397,75.310733 V 78.023583 H 68.296637 V 75.562903 Q 68.296637,75.270063 68.182797,75.127713 68.016117,74.904003 67.768107,74.904003 67.475377,74.904003 67.296497,75.115513 67.117617,75.327003 67.117617,75.794743 V 78.023583 H 65.458847 V 75.644243 Q 65.458847,75.359543 65.426327,75.257863 65.373477,75.095163 65.243377,74.997553 65.113267,74.895873 64.938457,74.895873 64.653867,74.895873 64.470907,75.111443 64.287957,75.327003 64.287957,75.819143 V 78.023583 H 62.629198 Z M 70.740037,75.876083 Q 70.740037,74.887743 71.406797,74.249183 72.073547,73.606563 73.207847,73.606563 74.504777,73.606563 75.167467,74.358993 75.700057,74.965023 75.700057,75.851683 75.700057,76.848153 75.037367,77.486713 74.378747,78.121203 73.211917,78.121203 72.171127,78.121203 71.528757,77.592453 70.740037,76.937633 70.740037,75.876083 Z M 72.398797,75.872013 Q 72.398797,76.449563 72.630537,76.726133 72.866337,77.002703 73.220047,77.002703 73.577827,77.002703 73.805487,76.730193 74.037237,76.457693 74.037237,75.855743 74.037237,75.294463 73.805487,75.021963 73.573757,74.745383 73.232247,74.745383 72.870407,74.745383 72.634607,75.026023 72.398797,75.302603 72.398797,75.872013 Z M 76.293637,75.876083 Q 76.293637,74.887743 76.960387,74.249183 77.627147,73.606563 78.761447,73.606563 80.058377,73.606563 80.721057,74.358993 81.253657,74.965023 81.253657,75.851683 81.253657,76.848153 80.590967,77.486713 79.932337,78.121203 78.765517,78.121203 77.724717,78.121203 77.082357,77.592453 76.293637,76.937633 76.293637,75.876083 Z M 77.952387,75.872013 Q 77.952387,76.449563 78.184137,76.726133 78.419937,77.002703 78.773647,77.002703 79.131417,77.002703 79.359087,76.730193 79.590827,76.457693 79.590827,75.855743 79.590827,75.294463 79.359087,75.021963 79.127357,74.745383 78.785847,74.745383 78.424007,74.745383 78.188207,75.026023 77.952387,75.302603 77.952387,75.872013 Z M 86.595827,72.061013 V 78.023583 H 85.046837 V 77.385033 Q 84.721587,77.791753 84.453267,77.934103 84.095487,78.121203 83.656407,78.121203 82.774177,78.121203 82.306627,77.450103 81.843157,76.779003 81.843157,75.819143 81.843157,74.745383 82.355417,74.175973 82.871747,73.606563 83.664537,73.606563 84.050767,73.606563 84.363827,73.736713 84.680937,73.866863 84.924867,74.127173 V 72.061013 Z M 84.937067,75.851683 Q 84.937067,75.343273 84.721587,75.095163 84.506117,74.843003 84.176797,74.843003 83.888147,74.843003 83.692997,75.082963 83.497847,75.322933 83.497847,75.888283 83.497847,76.417023 83.697057,76.665123 83.900347,76.909163 84.197127,76.909163 84.514247,76.909163 84.725657,76.661053 84.937067,76.412953 84.937067,75.851683 Z M 90.441897,72.061013 H 92.096587 V 73.187633 H 90.441897 Z M 90.441897,73.704173 H 92.096587 V 78.023583 H 90.441897 Z M 92.860927,76.827813 94.503417,76.673253 Q 94.605057,76.966103 94.788017,77.092183 94.970967,77.218263 95.275887,77.218263 95.609257,77.218263 95.792207,77.075913 95.934507,76.970163 95.934507,76.811543 95.934507,76.632583 95.747487,76.534973 95.613327,76.465833 95.036017,76.364153 94.174107,76.213663 93.836667,76.087573 93.503287,75.957423 93.271537,75.652383 93.043877,75.347333 93.043877,74.956893 93.043877,74.529823 93.291877,74.220713 93.539877,73.911603 93.974887,73.761113 94.409907,73.606563 95.141717,73.606563 95.914187,73.606563 96.280077,73.724513 96.650057,73.842463 96.893987,74.090563 97.141987,74.338663 97.304617,74.761663 L 95.735287,74.916213 Q 95.674317,74.708783 95.532017,74.611173 95.336857,74.481023 95.060407,74.481023 94.779887,74.481023 94.649777,74.582703 94.523747,74.680313 94.523747,74.822663 94.523747,74.981283 94.686377,75.062633 94.848987,75.143973 95.393777,75.209053 96.219107,75.302603 96.621587,75.469353 97.024087,75.636113 97.235497,75.945223 97.450977,76.254333 97.450977,76.624453 97.450977,76.998643 97.223297,77.352483 96.999697,77.706333 96.511827,77.917833 96.028007,78.125263 95.190497,78.125263 94.007417,78.125263 93.503287,77.787683 93.003217,77.450103 92.860927,76.827813 Z"
      style="font-size: 4.23419px; stroke-width: 0.352849"
    />
    <path
      fill="currentcolor"
      d="M 5.741758,86.823463 7.384257,86.668913 Q 7.485897,86.961743 7.668849,87.087833 7.851801,87.213923 8.15672,87.213923 8.490098,87.213923 8.67305,87.071563 8.815347,86.965813 8.815347,86.807183 8.815347,86.628233 8.628328,86.530623 8.494165,86.461473 7.91685,86.359793 7.054944,86.209303 6.7175,86.083223 6.384122,85.953073 6.152383,85.648023 5.92471,85.342983 5.92471,84.952533 5.92471,84.525463 6.17271,84.216363 6.420711,83.907253 6.85573,83.756763 7.290748,83.602213 8.022555,83.602213 8.795018,83.602213 9.160922,83.720153 9.530891,83.838103 9.774826,84.086203 10.022827,84.334303 10.185451,84.757303 L 8.616132,84.911853 Q 8.555148,84.704433 8.412852,84.606813 8.217703,84.476663 7.941243,84.476663 7.660717,84.476663 7.530619,84.578343 7.404585,84.675953 7.404585,84.818313 7.404585,84.976933 7.567209,85.058273 7.729832,85.139623 8.274622,85.204703 9.099938,85.298243 9.502431,85.465003 9.904925,85.631763 10.116336,85.940873 10.331813,86.249973 10.331813,86.620103 10.331813,86.994283 10.104139,87.348133 9.880532,87.701973 9.392661,87.913483 8.908855,88.120913 8.071342,88.120913 6.888255,88.120913 6.384122,87.783323 5.884054,87.445743 5.741758,86.823463 Z M 11.128664,89.662393 V 83.699813 H 12.677655 V 84.338373 Q 12.998837,83.935713 13.267166,83.793363 13.629004,83.602213 14.068087,83.602213 14.934059,83.602213 15.405667,84.265163 15.881342,84.928123 15.881342,85.904263 15.881342,86.982083 15.365012,87.551493 14.848681,88.116843 14.059957,88.116843 13.677791,88.116843 13.360674,87.986683 13.047624,87.856543 12.799623,87.600293 V 89.662393 Z M 12.787425,85.871723 Q 12.787425,86.384203 13.002902,86.632303 13.218379,86.880403 13.547692,86.880403 13.836349,86.880403 14.031498,86.644503 14.226646,86.404533 14.226646,85.835123 14.226646,85.310443 14.023366,85.066413 13.820086,84.818313 13.527364,84.818313 13.210248,84.818313 12.998837,85.066413 12.787425,85.314513 12.787425,85.871723 Z M 16.470847,85.871723 Q 16.470847,84.883383 17.137604,84.244833 17.804362,83.602213 18.938662,83.602213 20.235586,83.602213 20.898278,84.354643 21.430871,84.960663 21.430871,85.847323 21.430871,86.843793 20.768179,87.482353 20.109552,88.116843 18.942728,88.116843 17.901935,88.116843 17.259572,87.588103 16.470847,86.933273 16.470847,85.871723 Z M 18.129609,85.867653 Q 18.129609,86.445203 18.361348,86.721783 18.597152,86.998343 18.950859,86.998343 19.30863,86.998343 19.536304,86.725853 19.768042,86.453343 19.768042,85.851393 19.768042,85.290113 19.536304,85.017603 19.304565,84.741033 18.963055,84.741033 18.601218,84.741033 18.365413,85.021673 18.129609,85.298243 18.129609,85.867653 Z M 22.227721,83.699813 H 23.768581 V 84.403453 Q 24.114156,83.972323 24.467862,83.789293 24.821569,83.602213 25.329768,83.602213 26.016854,83.602213 26.403084,84.013003 26.793381,84.419723 26.793381,85.273833 V 88.019233 H 25.130554 V 85.643963 Q 25.130554,85.237243 24.980127,85.070473 24.8297,84.899653 24.557305,84.899653 24.256451,84.899653 24.069434,85.127413 23.882417,85.355183 23.882417,85.944933 V 88.019233 H 22.227721 Z M 27.488588,86.823463 29.131087,86.668913 Q 29.232728,86.961743 29.415679,87.087833 29.598631,87.213923 29.90355,87.213923 30.236928,87.213923 30.41988,87.071563 30.562176,86.965813 30.562176,86.807183 30.562176,86.628233 30.375159,86.530623 30.240995,86.461473 29.66368,86.359793 28.801775,86.209303 28.46433,86.083223 28.130952,85.953073 27.899213,85.648023 27.67154,85.342983 27.67154,84.952533 27.67154,84.525463 27.91954,84.216363 28.167542,83.907253 28.60256,83.756763 29.037579,83.602213 29.769386,83.602213 30.541849,83.602213 30.907752,83.720153 31.277721,83.838103 31.521656,84.086203 31.769657,84.334303 31.932281,84.757303 L 30.362962,84.911853 Q 30.301978,84.704433 30.159682,84.606813 29.964533,84.476663 29.688073,84.476663 29.407547,84.476663 29.277449,84.578343 29.151415,84.675953 29.151415,84.818313 29.151415,84.976933 29.314039,85.058273 29.476663,85.139623 30.021452,85.204703 30.846768,85.298243 31.249261,85.465003 31.651755,85.631763 31.863166,85.940873 32.078643,86.249973 32.078643,86.620103 32.078643,86.994283 31.85097,87.348133 31.627362,87.701973 31.139491,87.913483 30.655685,88.120913 29.818173,88.120913 28.635085,88.120913 28.130952,87.783323 27.630884,87.445743 27.488588,86.823463 Z M 32.664083,85.871723 Q 32.664083,84.883383 33.33084,84.244833 33.997598,83.602213 35.131898,83.602213 36.428822,83.602213 37.091514,84.354643 37.624107,84.960663 37.624107,85.847323 37.624107,86.843793 36.961415,87.482353 36.302789,88.116843 35.135964,88.116843 34.095172,88.116843 33.452808,87.588103 32.664083,86.933273 32.664083,85.871723 Z M 34.322845,85.867653 Q 34.322845,86.445203 34.554584,86.721783 34.790389,86.998343 35.144095,86.998343 35.501868,86.998343 35.729541,86.725853 35.96128,86.453343 35.96128,85.851393 35.96128,85.290113 35.729541,85.017603 35.497801,84.741033 35.156292,84.741033 34.794454,84.741033 34.55865,85.021673 34.322845,85.298243 34.322845,85.867653 Z M 38.437219,83.699813 H 39.98621 V 84.407523 Q 40.209818,83.947913 40.445622,83.777093 40.685492,83.602213 41.035134,83.602213 41.401036,83.602213 41.836054,83.829973 L 41.32379,85.009473 Q 41.031067,84.887463 40.860313,84.887463 40.535065,84.887463 40.356179,85.155893 40.100047,85.534153 40.100047,86.571293 V 88.019233 H 38.437219 Z M 47.051451,86.270313 H 43.733926 Q 43.778648,86.668913 43.949403,86.864133 44.189273,87.144773 44.575505,87.144773 44.819441,87.144773 45.038982,87.022753 45.173147,86.945473 45.32764,86.750243 L 46.957942,86.900733 Q 46.583907,87.551493 46.05538,87.836203 45.526853,88.116843 44.538914,88.116843 43.681074,88.116843 43.189138,87.876873 42.6972,87.632843 42.371953,87.108163 42.050771,86.579423 42.050771,85.867653 42.050771,84.854913 42.6972,84.228563 43.347695,83.602213 44.490127,83.602213 45.417083,83.602213 45.953741,83.882843 46.490399,84.163483 46.770925,84.696293 47.051451,85.229093 47.051451,86.083223 Z M 45.368295,85.477203 Q 45.319508,84.997273 45.108097,84.789843 44.900752,84.582403 44.559242,84.582403 44.16488,84.582403 43.929075,84.895593 43.778648,85.090823 43.737992,85.477203 Z M 52.357044,82.056653 V 88.019233 H 50.808052 V 87.380673 Q 50.482805,87.787393 50.214475,87.929743 49.856704,88.116843 49.41762,88.116843 48.535385,88.116843 48.067843,87.445743 47.604365,86.774653 47.604365,85.814783 47.604365,84.741033 48.11663,84.171623 48.63296,83.602213 49.425751,83.602213 49.811982,83.602213 50.125033,83.732353 50.442149,83.862513 50.686085,84.122813 V 82.056653 Z M 50.698282,85.847323 Q 50.698282,85.338923 50.482805,85.090823 50.267329,84.838653 49.938015,84.838653 49.649358,84.838653 49.45421,85.078613 49.259062,85.318583 49.259062,85.883933 49.259062,86.412663 49.458276,86.660763 49.661555,86.904803 49.958343,86.904803 50.27546,86.904803 50.48687,86.656703 50.698282,86.408593 50.698282,85.847323 Z M 56.150232,82.056653 H 57.821191 V 84.122813 Q 58.069192,83.862513 58.382243,83.732353 58.699359,83.602213 59.081525,83.602213 59.87025,83.602213 60.38658,84.171623 60.902911,84.736963 60.902911,85.798513 60.902911,86.506213 60.667107,87.047153 60.431301,87.584033 60.012546,87.852473 59.597855,88.116843 59.089656,88.116843 58.654638,88.116843 58.2928,87.929743 58.020405,87.783323 57.699223,87.380673 V 88.019233 H 56.150232 Z M 57.808994,85.847323 Q 57.808994,86.404533 58.016339,86.656703 58.22775,86.904803 58.548932,86.904803 58.84572,86.904803 59.044935,86.660763 59.248214,86.412663 59.248214,85.831053 59.248214,85.318583 59.049,85.078613 58.853852,84.838653 58.573325,84.838653 58.235882,84.838653 58.020405,85.090823 57.808994,85.338923 57.808994,85.847323 Z M 61.215971,83.699813 H 62.964177 L 63.854537,86.575363 64.679857,83.699813 H 66.310157 L 64.598547,88.316133 Q 64.305827,89.105183 64.000897,89.381743 63.569947,89.772203 62.687715,89.772203 62.329943,89.772203 61.581873,89.674593 L 61.451775,88.519493 Q 61.809546,88.633373 62.24863,88.633373 62.541353,88.633373 62.72024,88.499163 62.903187,88.364943 63.029217,88.019233 Z M 73.335497,87.034953 H 71.237647 L 70.948987,88.019233 H 69.066617 L 71.306767,82.056653 H 73.315167 L 75.555307,88.019233 H 73.628217 Z M 72.949267,85.745643 72.290637,83.602213 71.636077,85.745643 Z M 76.035027,82.056653 H 77.726317 V 85.131483 L 78.962257,83.699813 H 80.999117 L 79.450127,85.212833 81.088567,88.019233 H 79.222457 L 78.348347,86.286583 77.726317,86.896663 V 88.019233 H 76.035027 Z M 81.649617,82.056653 H 83.304307 V 83.183283 H 81.649617 Z M 81.649617,83.699813 H 83.304307 V 88.019233 H 81.649617 Z M 84.426387,82.056653 H 86.085157 V 83.195483 H 84.426387 Z M 84.426387,83.699813 H 86.085157 V 87.889073 Q 86.085157,88.690313 85.967247,89.023833 85.853407,89.357353 85.540367,89.564773 85.227307,89.772203 84.645937,89.772203 84.166197,89.772203 83.454717,89.629853 L 83.702717,88.425953 Q 83.901927,88.466623 83.995437,88.466623 84.206847,88.466623 84.316627,88.320203 84.426387,88.177853 84.426387,87.746723 Z"
      style="font-size: 4.23419px; stroke-width: 0.352849"
    />
    <path
      fill="currentcolor"
      d="M 86.930827,85.871723 Q 86.930827,84.883383 87.597577,84.244833 88.264337,83.602213 89.398637,83.602213 90.695557,83.602213 91.358257,84.354643 91.890847,84.960663 91.890847,85.847323 91.890847,86.843793 91.228157,87.482353 90.569527,88.116843 89.402707,88.116843 88.361917,88.116843 87.719547,87.588103 86.930827,86.933273 86.930827,85.871723 Z M 88.589587,85.867653 Q 88.589587,86.445203 88.821317,86.721783 89.057127,86.998343 89.410827,86.998343 89.768607,86.998343 89.996287,86.725853 90.228017,86.453343 90.228017,85.851393 90.228017,85.290113 89.996287,85.017603 89.764537,84.741033 89.423027,84.741033 89.061197,84.741033 88.825387,85.021673 88.589587,85.298243 88.589587,85.867653 Z M 88.089517,82.138003 H 90.719957 V 83.020593 H 88.089517 Z"
      style="font-size: 4.23419px; stroke-width: 0.352849"
    />
    <path
      fill="currentcolor"
      d="M 46.526801,66.042463 H 51.188759 C 51.537303,66.042463 51.821289,65.758483 51.821289,65.408523 V 49.328203 C 51.821289,48.978253 51.537303,48.694263 51.188759,48.694263 H 46.526801 C 46.176845,48.694263 45.892859,48.978253 45.892859,49.328203 V 65.408523 C 45.892859,65.758483 46.176845,66.042463 46.526801,66.042463"
    />
    <path
      fill="currentcolor"
      d="M 8.028517,57.614253 10.120489,53.120563 12.202583,57.614253 Z M 13.259505,48.717903 H 6.974417 C 6.738761,48.717903 6.522156,48.848783 6.4135,49.056923 L 1.079148,59.262433 C 0.37077,60.618503 0,62.125923 0,63.656983 V 65.430743 C 0,65.780703 0.283986,66.064333 0.633942,66.064333 H 5.674783 C 6.024739,66.064333 6.307314,65.780703 6.307314,65.430743 V 63.440733 C 6.307314,63.090773 6.5913,62.806783 6.941256,62.806783 H 13.289844 C 13.638389,62.806783 13.922375,63.090773 13.922375,63.440733 V 65.430743 C 13.922375,65.780703 14.206361,66.064333 14.556316,66.064333 H 19.715691 C 20.065647,66.064333 20.349633,65.780703 20.349633,65.430743 V 63.694373 C 20.349633,62.139683 19.967927,60.608983 19.237324,59.237733 L 13.819011,49.052683 C 13.708944,48.845963 13.49375,48.717903 13.259505,48.717903"
    />
    <path
      fill="currentcolor"
      d="M 64.063737,54.648803 H 68.808247 C 69.158197,54.648803 69.442187,54.932783 69.442187,55.282743 V 58.504663 C 69.475347,61.005853 67.416537,61.435543 64.984127,61.470113 62.563019,61.435543 60.504208,61.005853 60.53737,58.504663 V 57.655523 C 60.53737,57.305573 60.253383,57.021933 59.903428,57.021933 H 55.24147 C 54.891514,57.021933 54.607528,57.305573 54.607528,57.655523 V 58.877903 C 54.585656,64.628533 59.269486,66.280943 64.984127,66.291883 70.731937,66.291883 75.370617,64.617593 75.370617,58.877903 V 49.328203 C 75.370617,48.978253 75.086627,48.694263 74.738087,48.694263 H 64.063737 C 63.713777,48.694263 63.429797,48.978253 63.429797,49.328203 V 54.014863 C 63.429797,54.364813 63.713777,54.648803 64.063737,54.648803"
    />
    <path
      fill="currentcolor"
      d="M 0,13.149083 V 17.605723 C 0,17.925343 0.259292,18.184633 0.577498,18.184633 H 3.04412 C 3.362325,18.184633 3.621617,18.443573 3.621617,18.761783 V 21.716643 C 3.621617,22.036263 3.362325,22.293793 3.04412,22.293793 H 0.577498 C 0.259292,22.293793 0,22.553083 0,22.872693 V 28.144963 C 0,28.464573 0.259292,28.723873 0.577498,28.723873 H 2.067278 C 2.522009,28.723873 2.801761,29.224113 2.560461,29.608633 1.854906,30.731523 1.044575,31.846303 0.132292,32.955793 0.04692,33.059153 0,33.188623 0,33.320913 V 42.267003 C 0,42.804643 0.672395,43.054053 1.019881,42.643423 1.567039,41.998543 2.079625,41.320503 2.572809,40.619183 2.896659,40.158803 3.621617,40.391643 3.621617,40.953973 V 44.343813 C 3.621617,44.663423 3.880556,44.922723 4.200172,44.922723 H 11.796183 C 12.1158,44.922723 12.374739,44.663423 12.374739,44.343813 V 40.257943 C 12.374739,39.647633 13.197416,39.453253 13.470466,39.999003 13.648266,40.355653 13.808075,40.683743 13.949891,40.982893 14.108289,41.316273 14.534091,41.416813 14.826191,41.189623 L 18.723327,38.156443 C 18.956513,37.975823 19.016838,37.650553 18.862674,37.398673 17.717558,35.530013 16.014347,32.961083 13.753041,29.629093 13.492339,29.244573 13.7668,28.723873 14.229644,28.723873 H 16.171333 C 16.589022,28.723873 16.868775,29.153903 16.699088,29.535613 16.584788,29.794553 16.466255,30.070073 16.364302,30.314193 16.234833,30.621463 16.39323,30.974243 16.707555,31.082893 L 22.930555,33.245073 C 23.208896,33.341733 23.516166,33.216143 23.643166,32.950143 25.688219,28.686473 27.218921,23.918683 28.139671,18.690163 28.193293,18.380073 27.989388,18.082683 27.680707,18.022003 L 21.100697,16.714253 C 20.790605,16.652163 20.488627,16.854663 20.424069,17.164753 19.929122,19.522723 19.361502,21.836233 18.675349,24.095073 18.48238,24.730073 17.543991,24.586843 17.543991,23.923973 V 22.872693 C 17.543991,22.553083 17.2847,22.293793 16.966494,22.293793 H 12.952236 C 12.63403,22.293793 12.374739,22.036263 12.374739,21.716643 V 18.761783 C 12.374739,18.443573 12.63403,18.184633 12.952236,18.184633 H 17.546461 C 17.962738,18.184633 18.242491,17.758833 18.078449,17.377123 L 16.164277,12.921893 C 16.072202,12.709523 15.864063,12.571943 15.632641,12.571943 H 0.577498 C 0.259292,12.571943 0,12.829463 0,13.149083"
    />
    <path
      fill="currentcolor"
      d="M 93.540077,57.428333 C 93.575707,60.364863 91.386017,60.899673 88.810387,60.939533 86.223817,60.899673 84.034127,60.364863 84.071527,57.428333 V 56.988773 C 84.034127,54.066013 86.223817,53.531203 88.810387,53.491333 91.386017,53.531203 93.575707,54.066013 93.540077,56.988773 Z M 88.810387,48.138993 C 82.938757,48.151343 78.134977,50.030943 78.156857,56.584843 V 57.846023 C 78.134977,64.387583 82.938757,66.279533 88.810387,66.291883 94.671437,66.279533 99.476627,64.387583 99.452987,57.846023 V 56.584843 C 99.452987,50.044703 94.683787,48.138993 88.810387,48.138993"
    />
    <path
      fill="currentcolor"
      d="M 16.427802,10.965033 H 17.200738 C 17.520355,10.965033 17.779647,10.706093 17.779647,10.386133 V 9.383183 C 17.779647,9.063213 18.037174,8.804273 18.356791,8.804273 H 28.480102 C 28.798307,8.804273 29.057246,9.063213 29.057246,9.383183 V 10.280293 C 29.057246,10.599913 29.316538,10.858853 29.636154,10.858853 H 37.408201 C 37.727818,10.858853 37.98711,10.599913 37.98711,10.280293 V 9.383183 C 37.98711,9.063213 38.244637,8.804273 38.564607,8.804273 H 46.416381 C 46.736351,8.804273 46.993879,8.545333 46.993879,8.225363 V 3.005314 C 46.993879,2.687109 46.736351,2.42817 46.416381,2.42817 H 38.564607 C 38.244637,2.42817 37.98711,2.168878 37.98711,1.849261 V 0.577498 C 37.98711,0.258939 37.727818,0 37.408201,0 H 29.636154 C 29.316538,0 29.057246,0.258939 29.057246,0.577498 V 1.849261 C 29.057246,2.168878 28.798307,2.42817 28.480102,2.42817 H 18.356791 C 18.037174,2.42817 17.779647,2.168878 17.779647,1.849261 V 0.577498 C 17.779647,0.258939 17.520355,0 17.200738,0 H 9.428692 C 9.108722,0 8.849783,0.258939 8.849783,0.577498 V 1.849261 C 8.849783,2.168878 8.590844,2.42817 8.272286,2.42817 H 0.577498 C 0.259292,2.42817 0,2.687109 0,3.005314 V 8.225363 C 0,8.545333 0.259292,8.804273 0.577498,8.804273 H 8.272286 C 8.590844,8.804273 8.849783,9.063213 8.849783,9.383183 V 10.386133 C 8.849783,10.706093 9.108722,10.965033 9.428692,10.965033 Z"
    />
    <path
      fill="currentcolor"
      d="M 25.248305,44.815123 C 28.329818,42.629663 31.036329,39.741123 33.362193,36.170653 33.59679,35.811173 34.128426,35.828813 34.34221,36.199583 36.388674,39.745353 38.861998,42.606023 41.746309,44.802773 41.846851,44.881443 41.97244,44.922723 42.099087,44.922723 H 46.416381 C 46.736351,44.922723 46.993879,44.663423 46.993879,44.343813 V 39.274043 C 46.993879,39.083893 46.898981,38.907503 46.743054,38.798493 43.969162,36.880443 42.019359,34.732023 40.672807,32.076673 40.438562,31.614883 40.888001,31.100883 41.378362,31.267753 L 44.568531,32.358893 C 44.837348,32.449903 45.135093,32.335603 45.268443,32.084783 45.866754,30.952013 46.426259,29.772323 46.946959,28.548893 46.978709,28.475863 46.993879,28.395783 46.993879,28.317113 V 17.315033 C 46.993879,17.038103 46.798087,16.801043 46.526801,16.747413 L 42.825457,16.025283 C 42.518187,15.966013 42.221854,16.162863 42.152709,16.467663 41.516298,19.289883 40.716904,21.994983 39.750998,24.580143 39.537215,25.157283 38.689843,25.053923 38.631987,24.440793 38.519098,23.247343 38.455598,21.906793 38.455598,20.397613 V 13.149083 C 38.455598,12.829463 38.197718,12.571943 37.878101,12.571943 H 29.870399 C 29.550782,12.571943 29.292902,12.829463 29.292902,13.149083 V 20.397613 C 29.292902,25.719613 28.176713,30.041143 26.002191,33.308573 23.931033,36.422893 20.683008,38.963953 16.209786,41.019943 15.872177,41.175863 15.762111,41.601673 15.98683,41.898003 L 18.107377,44.692353 C 18.216386,44.837343 18.38713,44.922723 18.567752,44.922723 H 24.910696 C 25.032052,44.922723 25.150585,44.885323 25.248305,44.815123"
    />
    <path
      fill="currentcolor"
      d="M 76.511497,12.978343 C 73.421867,12.015253 70.620457,10.959393 68.076577,9.765943 67.514257,9.501363 67.700167,8.662453 68.318937,8.662453 H 84.115617 C 84.716407,8.662453 84.920307,9.467143 84.391137,9.751133 82.093857,10.981613 79.610647,12.039953 76.876627,12.972693 76.759497,13.014323 76.630027,13.015383 76.511497,12.978343 M 98.874437,2.443339 H 76.372147 C 75.852857,2.443339 75.596387,1.81222 75.968577,1.449564 76.340757,1.088673 76.085697,0.457553 75.566057,0.457553 H 64.007287 C 63.888757,0.457553 63.774107,0.493184 63.677797,0.562328 60.526081,2.789061 56.878711,4.813303 52.736042,6.643513 52.526845,6.735933 52.39032,6.942663 52.39032,7.171263 V 14.044783 C 52.39032,14.443073 52.785784,14.724233 53.160787,14.589123 54.869289,13.977403 56.471959,13.352993 57.942336,12.680593 58.106378,12.604743 58.292292,12.611803 58.452453,12.698583 59.94047,13.507503 61.617575,14.316423 63.426967,15.125343 63.946607,15.358183 63.854187,16.123003 63.293267,16.222133 60.223045,16.765053 56.757356,17.281873 52.897262,17.771183 52.609395,17.808223 52.39032,18.053753 52.39032,18.344443 V 23.915863 C 52.39032,24.265813 52.700412,24.536043 53.047545,24.489123 62.094531,23.266753 69.799197,21.706763 76.107567,19.879383 76.210927,19.849393 76.318527,19.849393 76.423307,19.879383 82.872437,21.741343 90.386957,23.308023 98.791527,24.504293 99.139017,24.552623 99.452987,24.282393 99.452987,23.929623 V 18.100673 C 99.452987,17.815273 99.240967,17.571503 98.958397,17.528463 95.466247,17.003533 92.339577,16.488123 89.580857,15.994943 89.029467,15.895813 88.930337,15.150043 89.434807,14.906273 92.871567,13.241513 96.152747,11.306883 99.206397,9.162693 99.361967,9.053683 99.452987,8.875883 99.452987,8.687153 V 3.021895 C 99.452987,2.702278 99.194047,2.443339 98.874437,2.443339"
    />
    <path
      fill="currentcolor"
      d="M 98.874437,26.210323 H 81.932637 C 81.613017,26.210323 81.354077,25.951033 81.354077,25.631423 V 22.730523 C 81.354077,22.410913 81.094787,22.151973 80.776577,22.151973 H 70.463127 C 70.144917,22.151973 69.885977,22.410913 69.885977,22.730523 V 25.631423 C 69.885977,25.951033 69.626687,26.210323 69.307067,26.210323 H 52.967817 C 52.649259,26.210323 52.39032,26.467853 52.39032,26.787473 V 32.112303 C 52.39032,32.431913 52.649259,32.691203 52.967817,32.691203 H 62.654036 C 63.300327,32.691203 63.462957,33.589733 62.856531,33.813043 59.886847,34.907003 56.542161,35.948753 52.821767,36.945003 52.56812,37.012733 52.39032,37.241333 52.39032,37.503453 V 43.247023 C 52.39032,43.565233 52.649259,43.824173 52.967817,43.824173 H 54.828014 C 54.887281,43.824173 54.94937,43.814643 55.005814,43.796653 60.326408,42.093443 64.988367,40.239943 69.053427,38.222763 69.436537,38.032613 69.885977,38.313423 69.885977,38.742053 V 43.247023 C 69.885977,43.565233 70.144917,43.824173 70.463127,43.824173 H 80.776577 C 81.094787,43.824173 81.354077,43.565233 81.354077,43.247023 V 38.742053 C 81.354077,38.313423 81.803167,38.032613 82.186277,38.222763 86.251337,40.239943 90.911887,42.093443 96.229657,43.796653 96.287867,43.814643 96.348187,43.824173 96.408867,43.824173 H 98.874437 C 99.194047,43.824173 99.452987,43.565233 99.452987,43.247023 V 37.664673 C 99.452987,37.402553 99.273777,37.172543 99.020487,37.106223 95.055617,36.060593 91.510197,34.964863 88.380357,33.813043 87.775687,33.589733 87.939377,32.691203 88.584607,32.691203 H 98.874437 C 99.194047,32.691203 99.452987,32.431913 99.452987,32.112303 V 26.787473 C 99.452987,26.467853 99.194047,26.210323 98.874437,26.210323"
    />
  </g>
</svg>
