<svg xmlns="http://www.w3.org/2000/svg" xmlns:xlink="http://www.w3.org/1999/xlink" width="143.975" height="135.736" viewBox="0 0 143.975 135.736">
  <defs>
    <clipPath id="clip-path">
      <rect id="Rectangle_68" data-name="Rectangle 68" width="143.975" height="135.736" fill="none"/>
    </clipPath>
  </defs>
  <g id="Group_116" data-name="Group 116" transform="translate(0 0)">
    <g id="Group_115" data-name="Group 115" transform="translate(0 0)" clip-path="url(#clip-path)">
      <path id="Path_196" data-name="Path 196" d="M117.1,100.121c-4.709-8.075-3.725-17.48,2.294-24.736,4.863-5.862,12.428-15.513,2.4-20.669-4.408-2.266-15.019,4.146-16.951-1.958-1.337-4.222,5.172-9.027,6.8-12.492,1.84-3.909,1.887-9.593-2.2-12.432-2.915-2.027-7.314-1.933-10.854-.628A2.326,2.326,0,0,1,95.4,24.959a17.965,17.965,0,0,0-1.548-9.81c-2.257-4.362-8.222-7.465-12.934-5.337l-.007,0c-2.95,1.335-4.144,3.971-4.859,6.823a3.4,3.4,0,0,1-5.218,1.825c-1.663-1.143-3.43-2.2-5.241-3.377C61,12.1,46.557,11.671,45.685,20.588c-.343,3.506,3.136,6.481,4.422,9.778a7.886,7.886,0,0,1,.559,4.746c-.982,3.858-5.429,3.451-8.69,2.915a36.049,36.049,0,0,0-9.138-.6c-7.978.739-13.33,6.815-8.687,14,3.188,4.925,7.647,8.972,10.863,13.9,2.363,3.626-8.643,7.325-10.6,9.168A5.344,5.344,0,0,0,22.55,78.6c.368,5.112,6.237,6.124,10.136,7.4,8.6,2.825,4.113,10.454,1.024,15.073-4.086,6.11-11.692,16.76-2.533,22.486,7.917,4.948,29.855,6.161,31.458-5.828.881-6.6-8.227-12.426-5.82-18.7,2.867-7.468,15.547-6.29,21.134-2.439,4.939,3.4,3.6,7.8.824,12.142-2.469,3.856-5.547,9.267-1.868,13.4,6.228,7,21.633,6.95,30.386,6.313,5.793-.421,14.064-1.68,16.905-7.2,3.582-6.955-3.12-14.621-6.708-20.484-.133-.218-.262-.433-.386-.647m-49-26.015a1.364,1.364,0,0,1-1.328-1.389l.538-24.209a1.359,1.359,0,0,1,2.717.062l-.538,24.207A1.363,1.363,0,0,1,68.1,74.107" transform="translate(17.243 7.016)" fill="#ffd626"/>
      <path id="Path_197" data-name="Path 197" d="M69.752,47.2a2.428,2.428,0,0,1,.175,4.367c-9.127,4.879-30.251,12.872-52.811-1.5C-12.529,31.192,1.407.355,20.792,0,30.618-.175,40.557,7.33,45.982,16c7.4,11.825,11.756,26.093,23.77,31.2" transform="translate(0 0.001)" fill="#f44d19"/>
      <path id="Path_198" data-name="Path 198" d="M15.716,9.6,13.031,7.413a.348.348,0,0,0-.359-.05L6.847,9.87a5.216,5.216,0,0,0-1.988,1.5l-.616.757a.35.35,0,0,0,.05.492l2.156,1.751a.348.348,0,0,0,.49-.05l.692-.851a.349.349,0,0,1,.492-.051l2.713,2.206a.35.35,0,0,1,.05.492l-.69.851a.348.348,0,0,0,.05.49l2.206,1.794a.35.35,0,0,0,.492-.051l.6-.743a5.22,5.22,0,0,0,1.072-2.291L15.84,9.934a.349.349,0,0,0-.124-.338M10.39,11.581l2.455-1.192-.67,2.643Z" transform="translate(3.202 5.64)"/>
      <path id="Path_199" data-name="Path 199" d="M20.881,14.744a.358.358,0,0,0-.244-.078l-4.052.272L16.54,14.9l1.585-1.949a.349.349,0,0,0-.051-.492l-1.992-1.62a.352.352,0,0,0-.492.051l-5.584,6.872a.348.348,0,0,0,.05.49l1.994,1.62a.348.348,0,0,0,.49-.05l2.326-2.862.046.035-.157,4.9a.35.35,0,0,0,.129.283l2.625,2.133a.349.349,0,0,0,.57-.271l.011-5.85a.35.35,0,0,1,.32-.348l4.833-.409a.35.35,0,0,0,.191-.619Z" transform="translate(7.633 8.277)"/>
      <path id="Path_200" data-name="Path 200" d="M15.389,22.59l1.994,1.62a.347.347,0,0,0,.49-.051l5.586-6.87a.349.349,0,0,0-.051-.492l-1.992-1.62a.349.349,0,0,0-.492.051L15.338,22.1a.35.35,0,0,0,.051.492" transform="translate(11.733 11.61)"/>
      <path id="Path_201" data-name="Path 201" d="M33.015,24.133c-2.515-2.036-5.222-2.9-7.489-.094l-.437.54c-2.282,2.788-.886,5.266,1.62,7.311s5.22,2.892,7.482.09l.439-.54c2.271-2.795.9-5.268-1.615-7.307m-1.206,5.613c-1,1.268-2.126.734-3.241-.143-1.091-.916-1.843-1.905-.807-3.147l.152-.187c1-1.263,2.123-.729,3.242.152,1.086.911,1.836,1.9.8,3.138Z" transform="translate(18.402 17.11)"/>
      <path id="Path_202" data-name="Path 202" d="M24.617,21.167l2.029,1.649a.35.35,0,0,1,.05.492l-1.118,1.376c-.856,1.081-1.886.548-2.936-.281-1.024-.856-1.755-1.756-.87-2.813l.294-.363a.35.35,0,0,0-.05-.492l-1.994-1.62a.35.35,0,0,0-.492.051l-.425.522c-2.006,2.45-.578,4.783,1.861,6.775,2.457,2,5.022,2.892,7.015.44l1.47-1.808,1.24-1.525.607-.748a.35.35,0,0,0-.05-.492l-4.564-3.708a.348.348,0,0,0-.49.05l-1.629,2a.35.35,0,0,0,.051.492" transform="translate(13.958 14.259)"/>
    </g>
  </g>
</svg>
