<svg xmlns="http://www.w3.org/2000/svg" xmlns:xlink="http://www.w3.org/1999/xlink" width="54" height="28.959" viewBox="0 0 54 28.959">
  <defs>
    <clipPath id="clip-path">
      <rect id="Rectangle_45" data-name="Rectangle 45" width="54" height="28.959" fill="none"/>
    </clipPath>
  </defs>
  <g id="Group_55" data-name="Group 55" transform="translate(-207 -1122)">
    <g id="Group_54" data-name="Group 54" transform="translate(207 1122)">
      <g id="Group_53" data-name="Group 53" transform="translate(0 0)" clip-path="url(#clip-path)">
        <path id="Path_85" data-name="Path 85" d="M49.677,0,7.914.646a3.1,3.1,0,0,0-2.941,4,7.68,7.68,0,0,1,.214,3.8,24.785,24.785,0,0,1-2.518,6.407A23.249,23.249,0,0,0,.089,21.6a7.863,7.863,0,0,0,1.766,6.2,3.063,3.063,0,0,0,2.474,1.158l41.762-.646A3.127,3.127,0,0,0,49,24.226a7.518,7.518,0,0,1-.244-3.38,23.255,23.255,0,0,1,2.58-6.743A24.788,24.788,0,0,0,53.859,7.7a7.849,7.849,0,0,0-1.64-6.455A3.133,3.133,0,0,0,49.677,0" transform="translate(0 0)" fill="#54c61e"/>
      </g>
    </g>
    <path id="Path_86" data-name="Path 86" d="M247.265,1136.479H217.72l6.969-6.969" transform="translate(1.508 2)" fill="none" stroke="#231815" stroke-linecap="round" stroke-linejoin="round" stroke-width="2"/>
  </g>
</svg>
