<svg xmlns="http://www.w3.org/2000/svg" width="71.971" height="68.376" viewBox="0 0 71.971 68.376">
  <path id="Path_192" data-name="Path 192" d="M56.546,25.158a8.431,8.431,0,0,0-6.494-4.474,20.752,20.752,0,0,0-10.789,1.6,22.113,22.113,0,0,0,6.685-7.018c1.41-2.516,2.038-5.6.78-8.308a6.748,6.748,0,0,0-5.435-3.834A8.43,8.43,0,0,0,34.15,6.512a20.734,20.734,0,0,0-4.007,10.14A22.1,22.1,0,0,0,27.4,7.344c-1.471-2.47-3.824-4.551-6.786-4.817a6.748,6.748,0,0,0-6.048,2.787,8.435,8.435,0,0,0-.636,7.893A20.756,20.756,0,0,0,20.7,21.736a22.1,22.1,0,0,0-9.425-2.28c-2.875.038-5.855,1.033-7.568,3.464a6.751,6.751,0,0,0-.6,6.656A8.433,8.433,0,0,0,9.6,34.05a20.752,20.752,0,0,0,10.789-1.6,22.1,22.1,0,0,0-6.685,7.018c-1.41,2.516-2.039,5.6-.781,8.308A6.748,6.748,0,0,0,18.36,51.61,8.432,8.432,0,0,0,25.5,48.223a20.739,20.739,0,0,0,4.007-10.14,22.1,22.1,0,0,0,2.742,9.308c1.471,2.47,3.824,4.55,6.786,4.817a6.748,6.748,0,0,0,6.048-2.787,8.435,8.435,0,0,0,.636-7.893A20.747,20.747,0,0,0,38.948,33a22.107,22.107,0,0,0,9.425,2.28c2.875-.038,5.855-1.033,7.569-3.464A6.749,6.749,0,0,0,56.546,25.158Z" transform="matrix(0.966, 0.259, -0.259, 0.966, 14.258, 0.034)" fill="currentcolor" stroke="currentcolor" stroke-miterlimit="10" stroke-width="5"/>
</svg>
