<?xml version="1.0" encoding="UTF-8"?><svg id="_圖層_2" xmlns="http://www.w3.org/2000/svg" viewBox="0 0 192.44 57.29"><defs><style>.cls-1,.cls-2{stroke-width:0px;}.cls-2{fill:#f44d19;}</style></defs><g id="_內容"><path class="cls-2" d="m137.88,0c-16.71,0-31.66,3.95-41.66,10.16C86.21,3.95,71.26,0,54.55,0,24.42,0,0,12.83,0,28.65s24.42,28.65,54.55,28.65c16.71,0,31.66-3.95,41.66-10.16,10.01,6.21,24.95,10.16,41.66,10.16,30.13,0,54.55-12.83,54.55-28.65S168.01,0,137.88,0Z"/><path class="cls-1" d="m33.22,24.05h.31c.13,0,.23-.1.23-.23v-.4c0-.13.1-.23.23-.23h4.05c.13,0,.23.1.23.23v.36c0,.13.1.23.23.23h3.11c.13,0,.23-.1.23-.23v-.36c0-.13.1-.23.23-.23h3.14c.13,0,.23-.1.23-.23v-2.09c0-.13-.1-.23-.23-.23h-3.14c-.13,0-.23-.1-.23-.23v-.51c0-.13-.1-.23-.23-.23h-3.11c-.13,0-.23.1-.23.23v.51c0,.13-.1.23-.23.23h-4.05c-.13,0-.23-.1-.23-.23v-.51c0-.13-.1-.23-.23-.23h-3.11c-.13,0-.23.1-.23.23v.51c0,.13-.1.23-.23.23h-3.08c-.13,0-.23.1-.23.23v2.09c0,.13.1.23.23.23h3.08c.13,0,.23.1.23.23v.4c0,.13.1.23.23.23h2.8Z"/><path class="cls-1" d="m26.64,24.92v1.78c0,.13.1.23.23.23h.99c.13,0,.23.1.23.23v1.18c0,.13-.1.23-.23.23h-.99c-.13,0-.23.1-.23.23v2.11c0,.13.1.23.23.23h.6c.18,0,.29.2.2.35-.28.45-.61.9-.97,1.34-.03.04-.05.09-.05.15v3.58c0,.22.27.31.41.15.22-.26.42-.53.62-.81.13-.18.42-.09.42.13v1.36c0,.13.1.23.23.23h3.04c.13,0,.23-.1.23-.23v-1.63c0-.24.33-.32.44-.1.07.14.13.27.19.39.06.13.23.17.35.08l1.56-1.21c.09-.07.12-.2.06-.3-.46-.75-1.14-1.78-2.04-3.11-.1-.15,0-.36.19-.36h.78c.17,0,.28.17.21.32-.05.1-.09.21-.13.31-.05.12.01.26.14.31l2.49.86c.11.04.23-.01.29-.12.82-1.71,1.43-3.61,1.8-5.7.02-.12-.06-.24-.18-.27l-2.63-.52c-.12-.02-.24.06-.27.18-.2.94-.42,1.87-.7,2.77-.08.25-.45.2-.45-.07v-.42c0-.13-.1-.23-.23-.23h-1.61c-.13,0-.23-.1-.23-.23v-1.18c0-.13.1-.23.23-.23h1.84c.17,0,.28-.17.21-.32l-.77-1.78c-.04-.08-.12-.14-.21-.14h-6.02c-.13,0-.23.1-.23.23Z"/><path class="cls-1" d="m36.75,37.59c1.23-.87,2.32-2.03,3.25-3.46.09-.14.31-.14.39.01.82,1.42,1.81,2.56,2.96,3.44.04.03.09.05.14.05h1.73c.13,0,.23-.1.23-.23v-2.03c0-.08-.04-.15-.1-.19-1.11-.77-1.89-1.63-2.43-2.69-.09-.18.09-.39.28-.32l1.28.44c.11.04.23,0,.28-.11.24-.45.46-.92.67-1.41.01-.03.02-.06.02-.09v-4.4c0-.11-.08-.21-.19-.23l-1.48-.29c-.12-.02-.24.05-.27.18-.25,1.13-.57,2.21-.96,3.25-.09.23-.42.19-.45-.06-.05-.48-.07-1.01-.07-1.62v-2.9c0-.13-.1-.23-.23-.23h-3.2c-.13,0-.23.1-.23.23v2.9c0,2.13-.45,3.86-1.32,5.16-.83,1.25-2.13,2.26-3.92,3.08-.14.06-.18.23-.09.35l.85,1.12c.04.06.11.09.18.09h2.54s.1-.01.14-.04Z"/><path class="cls-1" d="m165.58,21.51h-8.15c-.19,0-.28-.23-.15-.36h0c.13-.13.04-.36-.15-.36h-4.19s-.08.01-.12.04c-1.14.81-2.46,1.54-3.96,2.2-.08.03-.13.11-.13.19v2.49c0,.14.14.25.28.2.62-.22,1.2-.45,1.73-.69.06-.03.13-.03.18,0,.54.29,1.15.59,1.8.88.19.08.16.36-.05.4-1.11.2-2.37.38-3.77.56-.1.01-.18.1-.18.21v2.02c0,.13.11.22.24.21,3.28-.44,6.07-1.01,8.36-1.67.04-.01.08-.01.11,0,2.34.67,5.06,1.24,8.1,1.68.13.02.24-.08.24-.21v-2.11c0-.1-.08-.19-.18-.21-1.27-.19-2.4-.38-3.4-.56-.2-.04-.24-.31-.05-.39,1.24-.6,2.43-1.3,3.54-2.08.06-.04.09-.1.09-.17v-2.05c0-.12-.09-.21-.21-.21Zm-8.1,3.82c-1.12-.35-2.13-.73-3.06-1.16-.2-.1-.14-.4.09-.4h5.72c.22,0,.29.29.1.39-.83.45-1.73.83-2.72,1.17-.04.01-.09.02-.13,0Z"/><path class="cls-1" d="m165.58,30.12h-6.14c-.12,0-.21-.09-.21-.21v-1.05c0-.12-.09-.21-.21-.21h-3.74c-.12,0-.21.09-.21.21v1.05c0,.12-.09.21-.21.21h-5.92c-.12,0-.21.09-.21.21v1.93c0,.12.09.21.21.21h3.51c.23,0,.29.33.07.41-1.08.4-2.29.77-3.64,1.13-.09.02-.16.11-.16.2v2.08c0,.12.09.21.21.21h.67s.04,0,.06-.01c1.93-.62,3.62-1.29,5.09-2.02.14-.07.3.03.3.19v1.63c0,.12.09.21.21.21h3.74c.12,0,.21-.09.21-.21v-1.63c0-.15.16-.26.3-.19,1.47.73,3.16,1.4,5.09,2.02.02,0,.04.01.06.01h.89c.12,0,.21-.09.21-.21v-2.02c0-.1-.06-.18-.16-.2-1.44-.38-2.72-.78-3.86-1.19-.22-.08-.16-.41.07-.41h3.73c.12,0,.21-.09.21-.21v-1.93c0-.12-.09-.21-.21-.21Z"/><path class="cls-1" d="m63.26,19.75h-5.85c-.22,0-.42.12-.52.32l-4.96,9.49c-.66,1.26-1,2.66-1,4.09v1.65c0,.33.26.59.59.59h4.69c.33,0,.59-.26.59-.59v-1.85c0-.33.26-.59.59-.59h5.91c.33,0,.59.26.59.59v1.85c0,.33.26.59.59.59h4.8c.33,0,.59-.26.59-.59v-1.62c0-1.45-.36-2.87-1.03-4.15l-5.04-9.47c-.1-.19-.3-.31-.52-.31Zm-4.87,8.28l1.95-4.18,1.94,4.18h-3.89Z"/><path class="cls-1" d="m84.14,19.73c-.15,0-.29.06-.4.16l-5.02,4.68h-.1v-4.24c0-.33-.26-.59-.59-.59h-4.34c-.33,0-.59.26-.59.59v14.96c0,.33.26.59.59.59h4.34c.33,0,.59-.26.59-.59v-6.23h.1l5.01,6.59c.11.15.29.23.47.23h5.72c.5,0,.77-.58.46-.96l-6.22-7.68c-.19-.24-.17-.58.05-.8l5.9-5.69c.38-.37.12-1.01-.41-1.01h-5.55Z"/><rect class="cls-1" x="93.63" y="19.73" width="5.52" height="16.14" rx=".59" ry=".59"/><path class="cls-1" d="m133.58,19.21c-5.47.01-9.94,1.76-9.92,7.86v1.17c-.02,6.08,4.45,7.85,9.92,7.86,5.45-.01,9.93-1.77,9.9-7.86v-1.17c0-6.08-4.44-7.86-9.9-7.86Zm4.4,8.64c.03,2.73-2,3.23-4.4,3.27-2.41-.04-4.45-.53-4.41-3.27v-.41c-.03-2.72,2-3.22,4.41-3.25,2.4.04,4.43.53,4.4,3.25v.41Z"/><path class="cls-1" d="m110.54,25.27h4.42c.33,0,.59.26.59.59v3c.03,2.33-1.88,2.73-4.15,2.76-2.25-.03-4.17-.43-4.14-2.76v-.79c0-.33-.26-.59-.59-.59h-4.34c-.33,0-.59.26-.59.59v1.14c-.02,5.35,4.34,6.89,9.66,6.9,5.35,0,9.67-1.56,9.67-6.9v-8.88c0-.33-.26-.59-.59-.59h-9.93c-.33,0-.59.26-.59.59v4.36c0,.33.26.59.59.59Z"/></g></svg>