<svg xmlns="http://www.w3.org/2000/svg" width="119.182" height="106.959" viewBox="0 0 119.182 106.959">
  <path id="Path_84" data-name="Path 84" d="M59.571,16.285c1.117-1.394,2.1-2.683,3.14-3.907C68.357,5.758,75.171,1.359,83.47.26,97.735-1.628,111.236,6.866,116.646,21.9c3.987,11.078,3.17,21.93-1.727,32.493-4.163,8.98-10.021,16.546-16.555,23.542a186.655,186.655,0,0,1-31.1,26.435c-4.953,3.4-10.343,3.472-15.283.056-13.67-9.453-26.457-20.139-37.222-33.442C9.058,63.939,4.2,56.3,1.566,47.213-3.026,31.373,2.653,12.874,16.339,4.4,27.282-2.373,41.1-1.318,51.484,7.512c2.563,2.18,4.7,4.961,7.02,7.472.342.37.646.784,1.067,1.3" transform="translate(0 0)" fill="#37ae36"/>
</svg>
