<?xml version="1.0" encoding="utf-8"?>
<!-- Generator: Adobe Illustrator 28.0.0, SVG Export Plug-In . SVG Version: 6.00 Build 0)  -->
<svg version="1.1" id="圖層_1" xmlns="http://www.w3.org/2000/svg" xmlns:xlink="http://www.w3.org/1999/xlink" x="0px" y="0px"
	 viewBox="0 0 143 143" style="enable-background:new 0 0 143 143;" xml:space="preserve" fill="currentcolor">
<g>
	<path d="M116,143c-29.7,0-59.3,0-89,0c-6.9-3-12.6-7.4-13.8-15.2c-1.3-8.3-1.5-16.8-2.2-25.2C10.2,93.1,9.6,83.5,8.8,74
		c-0.9-10.9-2-21.7-2.7-32.6c-0.4-5.7,1-6.8,6.9-6.9c8-0.1,16-0.3,24,0.1c4.6,0.2,5.6-2.1,6.1-5.7c0.4-3.2,0.9-6.5,1.8-9.6
		C47.9,8.5,56.1,3.3,66,0c3.7,0,7.3,0,11,0c2.2,0.9,4.6,1.6,6.7,2.7c10.4,5,15.2,13.7,16.2,24.7c0.7,7.1,0.5,7.1,7.6,7.1
		c7.5,0,15-0.1,22.5,0c6,0.1,7.2,1.1,6.9,6.9c-0.5,9.9-1.2,19.8-2,29.7c-1.2,15-2.8,29.9-3.9,44.9C130.3,127.5,128.9,138.4,116,143z
		 M15.8,44.2c0.8,11,1.4,21.4,2.3,31.8c1.2,14.8,2.8,29.6,3.8,44.5c0.6,9.6,3.7,13,13.5,13c23.8,0,47.7,0,71.5,0
		c1.7,0,3.3-0.2,5-0.3c4.5-0.3,7.6-2.6,8.1-7.1c1.2-10.2,2-20.4,3-30.6s2-20.4,2.8-30.6c0.6-6.8,0.9-13.7,1.3-20.7
		C89.7,44.2,53.1,44.2,15.8,44.2z M90.2,34.2c2-7.1-1.4-16.3-7.8-21.3c-5-3.9-14.3-4.3-20.1-1c-7.2,4.1-11.1,12.9-9.7,22.2
		C65.1,34.2,77.6,34.2,90.2,34.2z"/>
	<path d="M77.9,52.8c2.6,1.2,7.9,3.3,12.9,5.9c3.2,1.6,3,4.9,1.3,7.3c-1.8,2.5-4.4,2.2-7,0.5c-8.6-5.6-15.3-5.3-20.9,0.7
		c-3.4,3.6-3,8,1.3,10.4c3.4,1.9,7.2,3,10.9,4.3c5.8,2,11.5,4.2,15.2,9.6c4.6,6.7,5.1,14,1.1,21c-3.8,6.6-14.1,11.2-21.6,9.2
		c-5.9-1.6-11.7-4.2-17.2-6.9c-2.7-1.3-5.5-3.7-2.8-7.5c2.4-3.5,5.2-2.5,8.1-0.6c4.9,3.2,9.9,5.7,16,5.4c5.5-0.3,9.9-3,10.7-7.7
		c0.8-4.9-2.1-8.3-6.2-10.3c-3.4-1.7-7.2-2.3-10.5-4.1c-4.6-2.4-9.6-4.6-13-8.3c-6-6.6-5.2-14.7,1-21.2C61.9,55.4,67.9,53,77.9,52.8
		z"/>
</g>
</svg>
