<svg id="Group_48" data-name="Group 48" xmlns="http://www.w3.org/2000/svg" xmlns:xlink="http://www.w3.org/1999/xlink" width="198.972" height="158.39" viewBox="0 0 198.972 158.39">
  <defs>
    <clipPath id="clip-path">
      <rect id="Rectangle_38" data-name="Rectangle 38" width="198.972" height="158.39" fill="none"/>
    </clipPath>
  </defs>
  <g id="Group_47" data-name="Group 47" clip-path="url(#clip-path)">
    <path id="Path_78" data-name="Path 78" d="M189.735,128.39a6.6,6.6,0,0,1,.479,11.878c-24.832,13.271-82.287,35.016-143.657-4.067C-34.079,84.846,3.827.963,56.555.008c26.729-.484,53.767,19.931,68.522,43.506,20.131,32.162,31.978,70.974,64.658,84.875" transform="translate(0 0)" fill="#f44d19"/>
    <path id="Path_79" data-name="Path 79" d="M46.109,32.017,38.8,26.076a.949.949,0,0,0-.974-.135L21.982,32.76a14.223,14.223,0,0,0-5.407,4.088L14.9,38.911a.951.951,0,0,0,.138,1.336L20.9,45.012a.95.95,0,0,0,1.336-.138l1.882-2.314a.949.949,0,0,1,1.334-.138l7.382,6a.951.951,0,0,1,.138,1.336l-1.88,2.314a.948.948,0,0,0,.138,1.336l6,4.877a.949.949,0,0,0,1.334-.138L40.2,56.127A14.211,14.211,0,0,0,43.12,49.9l3.321-16.959a.946.946,0,0,0-.333-.92m-14.489,5.4,6.68-3.245-1.826,7.191Z" transform="translate(5.352 9.426)"/>
    <path id="Path_80" data-name="Path 80" d="M64.8,48.782a.949.949,0,0,0-.663-.21l-11.022.741-.121-.1,4.31-5.3a.949.949,0,0,0-.138-1.336l-5.421-4.406a.948.948,0,0,0-1.334.138L35.221,57a.948.948,0,0,0,.138,1.336l5.42,4.407a.95.95,0,0,0,1.336-.138l6.327-7.784.121.1-.424,13.323a.951.951,0,0,0,.349.767l7.143,5.806a.949.949,0,0,0,1.547-.734l.029-15.917a.95.95,0,0,1,.869-.944L71.223,56.1a.95.95,0,0,0,.518-1.684Z" transform="translate(12.759 13.834)"/>
    <path id="Path_81" data-name="Path 81" d="M54.162,73.62l5.421,4.406a.948.948,0,0,0,1.336-.138L76.112,59.2a.95.95,0,0,0-.138-1.336l-5.421-4.406a.948.948,0,0,0-1.336.138L54.024,72.284a.95.95,0,0,0,.138,1.336" transform="translate(19.613 19.405)"/>
    <path id="Path_82" data-name="Path 82" d="M109.1,83.584c-6.841-5.536-14.2-7.892-20.369-.252L87.539,84.8c-6.206,7.58-2.407,14.321,4.409,19.887,6.828,5.525,14.2,7.866,20.355.242l1.191-1.467c6.18-7.6,2.434-14.326-4.394-19.876m-3.28,15.268c-2.733,3.448-5.783,2-8.814-.389-2.97-2.492-5.012-5.182-2.2-8.561l.416-.512c2.719-3.433,5.77-1.983,8.816.415,2.955,2.481,5,5.171,2.194,8.535Z" transform="translate(30.761 28.6)"/>
    <path id="Path_83" data-name="Path 83" d="M81.6,72.525l5.518,4.485a.95.95,0,0,1,.138,1.336L84.21,82.092c-2.324,2.939-5.125,1.493-7.985-.767C73.44,79,71.454,76.551,73.857,73.674l.8-.987a.949.949,0,0,0-.139-1.336L69.1,66.945a.949.949,0,0,0-1.336.139L66.608,68.5c-5.459,6.663-1.573,13.012,5.059,18.426,6.685,5.432,13.661,7.87,19.083,1.2l4-4.916,3.373-4.149,1.654-2.034a.949.949,0,0,0-.138-1.336L87.226,65.6a.949.949,0,0,0-1.336.138L81.462,71.19a.95.95,0,0,0,.138,1.336" transform="translate(23.333 23.833)"/>
  </g>
</svg>
