<svg xmlns="http://www.w3.org/2000/svg" xmlns:xlink="http://www.w3.org/1999/xlink" width="273.369" height="402.329" viewBox="0 0 273.369 402.329">
  <g data-name="Group 12" >
    <path id="Path_55" data-name="Path 55" d="M43.324,391.654H27.095a1.636,1.636,0,0,0-1.45.878L11.871,418.873a24.473,24.473,0,0,0-2.787,11.343v4.58a1.636,1.636,0,0,0,1.636,1.636H23.737a1.636,1.636,0,0,0,1.636-1.636v-5.138a1.636,1.636,0,0,1,1.636-1.636H43.4a1.636,1.636,0,0,1,1.636,1.636V434.8a1.636,1.636,0,0,0,1.636,1.636H59.995a1.636,1.636,0,0,0,1.636-1.636v-4.483a24.48,24.48,0,0,0-2.87-11.5L44.767,392.521a1.636,1.636,0,0,0-1.444-.867M29.814,414.618l5.4-11.6,5.377,11.6Z" transform="translate(-0.805 -34.689)" fill="#fff"/>
    <path id="Path_56" data-name="Path 56" d="M107.221,391.59a1.636,1.636,0,0,0-1.115.438L92.173,405H91.9V393.226a1.636,1.636,0,0,0-1.636-1.636H78.23a1.636,1.636,0,0,0-1.635,1.636v41.506a1.635,1.635,0,0,0,1.635,1.636H90.268a1.635,1.635,0,0,0,1.636-1.636V417.447h.269l13.913,18.276a1.635,1.635,0,0,0,1.3.644h15.861a1.636,1.636,0,0,0,1.271-2.665L107.258,412.39a1.637,1.637,0,0,1,.136-2.207L123.76,394.4a1.636,1.636,0,0,0-1.136-2.814Z" transform="translate(-6.784 -34.684)" fill="#fff"/>
    <path id="Path_57" data-name="Path 57" d="M140.742,436.368H152.78a1.636,1.636,0,0,0,1.636-1.636V393.227a1.637,1.637,0,0,0-1.636-1.637H140.742a1.637,1.637,0,0,0-1.636,1.637v41.506a1.636,1.636,0,0,0,1.636,1.636" transform="translate(-12.321 -34.684)" fill="#fff"/>
    <path id="Path_58" data-name="Path 58" d="M258.028,390.017c-15.163.033-27.57,4.885-27.51,21.8v3.257c-.06,16.881,12.346,21.767,27.51,21.8,15.133-.033,27.54-4.918,27.48-21.8v-3.257c0-16.882-12.317-21.8-27.48-21.8M270.237,414c.094,7.579-5.562,8.957-12.21,9.061-6.679-.1-12.333-1.481-12.24-9.061V412.86c-.093-7.546,5.562-8.923,12.24-9.027,6.648.1,12.3,1.481,12.21,9.027Z" transform="translate(-20.417 -34.544)" fill="#fff"/>
    <path id="Path_59" data-name="Path 59" d="M188.214,406.958h12.252a1.636,1.636,0,0,1,1.636,1.636v8.317c.087,6.457-5.23,7.568-11.512,7.655-6.252-.087-11.57-1.2-11.482-7.655V414.72a1.636,1.636,0,0,0-1.636-1.636H165.434a1.636,1.636,0,0,0-1.636,1.636v3.155c-.058,14.843,12.038,19.108,26.792,19.137,14.843,0,26.822-4.324,26.822-19.137v-24.65a1.636,1.636,0,0,0-1.636-1.636H188.214a1.636,1.636,0,0,0-1.636,1.636v12.1a1.636,1.636,0,0,0,1.636,1.636" transform="translate(-14.508 -34.684)" fill="#fff"/>
  </g>
</svg>
