<svg xmlns="http://www.w3.org/2000/svg" xmlns:xlink="http://www.w3.org/1999/xlink" width="273.369" height="402.329" viewBox="0 0 273.369 402.329">
  <defs>
    <clipPath id="clip-path123">
      <rect id="Rectangle_25" data-name="Rectangle 25" width="273.369" height="402.329"/>
    </clipPath>
  </defs>
  <g id="Group_12" data-name="Group 12" clip-path="url(#clip-path123)">
    <path id="Path_54" data-name="Path 54" d="M250.447,235.784c-12.765-20.819-10.747-45.446,4.556-64.75,12.361-15.593,31.56-41.244,5.054-54.127-11.648-5.661-38.992,11.705-44.395-4.129C211.926,101.827,228.649,88.9,232.7,79.755c4.575-10.319,4.372-25.17-6.466-32.348-7.735-5.123-19.218-4.624-28.39-1.005-4.17,1.645-8.711-1.394-8.472-5.688.492-8.859-.334-17.7-4.614-25.536C178.616,3.915,162.855-3.841,150.668,1.991L150.651,2c-7.63,3.661-10.6,10.615-12.3,18.1-1.316,5.789-8.4,8.426-13.525,5.07-4.407-2.888-9.082-5.545-13.884-8.515C98.785,9.136,61.029,8.845,59.268,32.188c-.692,9.177,8.571,16.747,12.123,25.286,1.631,3.921,2.685,8.236,1.734,12.363-2.34,10.135-13.979,9.331-22.528,8.121-7.914-1.121-15.961-1.95-23.906-1.035C5.9,79.318-7.734,95.5,4.815,113.981c8.611,12.683,20.5,22.993,29.182,35.683C40.38,159,11.849,169.3,6.856,174.228c-2.934,2.894-5.018,6.827-4.64,10.835,1.259,13.33,16.648,15.631,26.905,18.75,22.632,6.879,11.352,27.066,3.552,39.309-10.318,16.2-29.567,44.46-5.307,58.883,20.969,12.467,78.343,14.36,81.828-17.053,1.919-17.3-22.212-31.977-16.288-48.5,7.054-19.67,40.245-17.331,55.065-7.6,13.1,8.6,9.865,20.171,2.86,31.668-6.226,10.218-13.953,24.528-4.1,35.116,16.675,17.917,56.912,16.892,79.736,14.721,15.111-1.437,36.639-5.209,43.743-19.789,8.949-18.375-9-38.014-18.714-53.115q-.541-.844-1.048-1.667m-129.5-65.1a3.561,3.561,0,0,1-3.55-3.55l0-63.265a3.55,3.55,0,1,1,7.1,0l0,63.265a3.561,3.561,0,0,1-3.55,3.55" transform="translate(0 0)" fill="currentcolor"/>
  </g>
</svg>
