<svg xmlns="http://www.w3.org/2000/svg" xmlns:xlink="http://www.w3.org/1999/xlink" width="192.458" height="192.458" viewBox="0 0 192.458 192.458">
  <defs>
    <clipPath id="clip-path">
      <rect id="Rectangle_37" data-name="Rectangle 37" width="158.765" height="158.765" fill="none"/>
    </clipPath>
  </defs>
  <g id="Group_46" data-name="Group 46" transform="translate(38.409) rotate(14)">
    <g id="Group_45" data-name="Group 45">
      <g id="Group_44" data-name="Group 44" clip-path="url(#clip-path)">
        <path id="Path_77" data-name="Path 77" d="M157.744,80.548,110.806,86.7a1.175,1.175,0,0,0-.562,2.1l37.551,28.766a1.175,1.175,0,0,1-1.165,2.017l-43.684-18.168a1.175,1.175,0,0,0-1.536,1.536l18.168,43.683a1.175,1.175,0,0,1-2.017,1.165l-28.766-37.55a1.175,1.175,0,0,0-2.1.561l-6.15,46.938a1.175,1.175,0,0,1-2.33,0l-6.15-46.938a1.174,1.174,0,0,0-2.1-.561L41.2,147.794a1.174,1.174,0,0,1-2.016-1.165l18.168-43.684a1.175,1.175,0,0,0-1.536-1.536L12.136,119.578a1.175,1.175,0,0,1-1.165-2.017L48.522,88.794a1.175,1.175,0,0,0-.562-2.1L1.022,80.548a1.174,1.174,0,0,1,0-2.329l46.938-6.151a1.175,1.175,0,0,0,.562-2.1L10.971,41.2a1.174,1.174,0,0,1,1.166-2.016L55.82,57.355a1.175,1.175,0,0,0,1.536-1.536L39.187,12.136A1.175,1.175,0,0,1,41.2,10.971L69.971,48.522a1.175,1.175,0,0,0,2.1-.562l6.15-46.938a1.175,1.175,0,0,1,2.33,0L86.7,47.959a1.175,1.175,0,0,0,2.1.562l28.766-37.551a1.175,1.175,0,0,1,2.017,1.166L101.411,55.82a1.175,1.175,0,0,0,1.536,1.536l43.683-18.167a1.174,1.174,0,0,1,1.165,2.016l-37.55,28.766a1.174,1.174,0,0,0,.561,2.1l46.938,6.151a1.174,1.174,0,0,1,0,2.329" transform="translate(0 0)" fill="#a467eb"/>
      </g>
    </g>
    <text id="mtfk" transform="translate(65.326 82.139)" fill="#fff" font-size="10" font-family="Arial-Black, Arial" font-weight="800"><tspan x="0" y="0">mt</tspan><tspan y="0" letter-spacing="0.009em">f</tspan><tspan y="0">k</tspan></text>
  </g>
</svg>
