<svg id="Group_36" data-name="Group 36" xmlns="http://www.w3.org/2000/svg" xmlns:xlink="http://www.w3.org/1999/xlink" width="256.421" height="132.842" viewBox="0 0 256.421 132.842">
  <defs>
    <clipPath id="clip-path">
      <rect id="Rectangle_34" data-name="Rectangle 34" width="256.421" height="132.841" fill="none"/>
    </clipPath>
    <clipPath id="clip-path-2">
      <path id="Path_73" data-name="Path 73" d="M213.39,0c-8.162,0-15.79,3.514-22.29,9.609a8.972,8.972,0,0,1-12.206,0C172.393,3.514,164.765,0,156.6,0s-15.791,3.514-22.292,9.609a8.97,8.97,0,0,1-12.2,0C115.608,3.514,107.98,0,99.818,0s-15.79,3.514-22.29,9.609a8.972,8.972,0,0,1-12.206,0C58.821,3.514,51.194,0,43.031,0,19.266,0,0,29.736,0,66.419s19.266,66.422,43.031,66.422c8.163,0,15.79-3.514,22.29-9.611a8.972,8.972,0,0,1,12.206,0c6.5,6.1,14.127,9.611,22.29,9.611s15.79-3.514,22.29-9.611a8.97,8.97,0,0,1,12.2,0c6.5,6.1,14.128,9.611,22.292,9.611s15.788-3.514,22.289-9.611a8.972,8.972,0,0,1,12.206,0c6.5,6.1,14.128,9.611,22.29,9.611,23.765,0,43.03-29.736,43.03-66.422S237.155,0,213.39,0Z" fill="none"/>
    </clipPath>
  </defs>
  <g id="Group_33" data-name="Group 33" transform="translate(0 0.001)">
    <g id="Group_32" data-name="Group 32" clip-path="url(#clip-path)">
      <path id="Path_72" data-name="Path 72" d="M213.39,0c-8.162,0-15.79,3.515-22.29,9.611a8.972,8.972,0,0,1-12.206,0C172.393,3.515,164.766,0,156.6,0s-15.79,3.515-22.29,9.611a8.97,8.97,0,0,1-12.2,0C115.608,3.515,107.98,0,99.818,0s-15.79,3.515-22.29,9.611a8.972,8.972,0,0,1-12.206,0C58.821,3.515,51.193,0,43.031,0,19.266,0,0,29.738,0,66.42s19.266,66.42,43.031,66.42c8.162,0,15.79-3.514,22.29-9.611a8.975,8.975,0,0,1,12.206,0c6.5,6.1,14.127,9.611,22.29,9.611s15.79-3.514,22.29-9.611a8.973,8.973,0,0,1,12.2,0c6.5,6.1,14.128,9.611,22.29,9.611s15.79-3.514,22.29-9.611a8.975,8.975,0,0,1,12.206,0c6.5,6.1,14.128,9.611,22.29,9.611,23.765,0,43.031-29.736,43.031-66.42S237.155,0,213.39,0" transform="translate(0 -0.001)" fill="#54c61e"/>
    </g>
  </g>
  <g id="Group_35" data-name="Group 35">
    <g id="Group_34" data-name="Group 34" clip-path="url(#clip-path-2)">
      <text id="Akijō_is_a_carrier_like_amoeba" data-name="Akijō is a carrier like amoeba" transform="translate(30.857 52.789)" font-size="11" font-family="Arial-Black, Arial" font-weight="800"><tspan x="0" y="0">Akijō is a ca</tspan><tspan y="0" letter-spacing="0.041em">r</tspan><tspan y="0">rier li</tspan><tspan y="0" letter-spacing="-0.034em">k</tspan><tspan y="0">e amo</tspan><tspan y="0" letter-spacing="-0.009em">e</tspan><tspan y="0">ba</tspan></text>
      <text id="We_gather_mtfk_badass" data-name="We gather mtfk badass" transform="translate(51.935 67.341)" font-size="11" font-family="Arial-Black, Arial" font-weight="800"><tspan x="0" y="0" letter-spacing="-0.025em">W</tspan><tspan y="0">e g</tspan><tspan y="0" letter-spacing="-0.017em">a</tspan><tspan y="0">ther mt</tspan><tspan y="0" letter-spacing="0.009em">f</tspan><tspan y="0">k badass</tspan></text>
      <text id="got_talent_we_are_akijō" data-name="got talent we are akijō" transform="translate(53.063 81.895)" font-size="11" font-family="Arial-Black, Arial" font-weight="800"><tspan x="0" y="0">got talent </tspan><tspan y="0" letter-spacing="-0.011em">w</tspan><tspan y="0">e a</tspan><tspan y="0" letter-spacing="0.016em">r</tspan><tspan y="0">e akijō</tspan></text>
    </g>
  </g>
</svg>
